<svg width="40" height="40" viewBox="0 0 40 40" fill="none" xmlns="http://www.w3.org/2000/svg">
<g clip-path="url(#clip0_1_3470)">
<path d="M1.65721 16.5024C0.839605 16.635 0.207135 17.2905 0.103874 18.1124C-0.0334138 19.3572 -0.0347959 20.6133 0.099859 21.8584C0.193709 22.693 0.830062 23.3639 1.65853 23.5017L3.77983 23.849C4.18709 25.5837 4.87458 27.2403 5.81512 28.7536L4.5665 30.4976C4.06895 31.1722 4.081 32.0955 4.59586 32.757C4.99324 33.2431 5.41609 33.708 5.86251 34.1497C6.27187 34.5597 6.72447 34.9717 7.26783 35.4283C7.92406 35.9329 8.83466 35.9435 9.50247 35.4543L11.2551 34.197C12.7669 35.1374 14.4219 35.8251 16.1551 36.2329L16.5031 38.3576C16.6354 39.1754 17.291 39.8083 18.1131 39.9116C18.4931 39.9542 18.8791 39.9842 19.2677 40.0002H19.3244C19.6718 40 20.0059 39.8663 20.2577 39.6269C20.5194 39.3768 20.6671 39.0303 20.6663 38.6682V33.3256C20.6624 32.6117 20.0989 32.0265 19.3856 31.9956C13.0048 31.6625 8.00191 26.3916 8.00191 20.0021C8.00191 13.6125 13.0048 8.34166 19.3856 8.00851C20.1 7.97718 20.6638 7.39025 20.6663 6.67519V1.33526C20.6674 0.972822 20.5194 0.625984 20.257 0.375957C19.995 0.118955 19.6375 -0.0166873 19.2709 0.00193798C18.883 0.0172726 18.4983 0.0452434 18.1036 0.0852581C17.282 0.191152 16.6296 0.827834 16.5036 1.64656L16.1563 3.76918C14.4232 4.17736 12.7681 4.86524 11.2563 5.80585L9.50372 4.55118C8.82972 4.0583 7.9103 4.07298 7.25243 4.58718C6.76909 4.98285 6.30649 5.40314 5.86646 5.84653C5.41293 6.28985 4.986 6.75956 4.58783 7.25316C4.07915 7.91025 4.06612 8.82446 4.55584 9.49583L5.81249 11.2505C4.87274 12.7637 4.18617 14.4201 3.77983 16.1545L1.65721 16.5024ZM4.98587 16.8744C5.37345 14.9915 6.11701 13.1999 7.17655 11.5958C7.32838 11.3651 7.32226 11.0648 7.16121 10.8405L5.64058 8.71719C5.50001 8.53166 5.49593 8.27643 5.63058 8.0865C5.99598 7.63363 6.38803 7.20288 6.80457 6.79648C7.20919 6.38778 7.63415 5.99967 8.07786 5.63382C8.26886 5.48824 8.53356 5.48824 8.72455 5.63382L10.8445 7.15517C11.0691 7.31582 11.3695 7.32135 11.5999 7.16918C13.2026 6.10925 14.9932 5.36543 16.8752 4.97785C17.1457 4.92211 17.3539 4.70518 17.3985 4.43252L17.8178 1.86519C17.848 1.63491 18.0248 1.45129 18.2538 1.41252C18.6065 1.37587 18.9638 1.34987 19.3332 1.33519L19.3185 6.67578C12.221 7.03828 6.65333 12.9008 6.65727 20.0076C6.66116 27.1144 12.2353 32.9708 19.3332 33.3255L19.3238 38.6681C18.9658 38.6534 18.6112 38.6254 18.2612 38.5861C18.0311 38.5525 17.8508 38.3711 17.8186 38.1407L17.3985 35.5721C17.3539 35.2994 17.1458 35.0826 16.8752 35.0267C14.9932 34.6388 13.2026 33.8949 11.5999 32.8348C11.3693 32.6827 11.069 32.6886 10.8445 32.8494L8.72258 34.3721C8.54159 34.5128 8.29018 34.5196 8.10189 34.3888C7.6119 33.9761 7.18721 33.5888 6.80457 33.2067C6.3958 32.8028 6.00796 32.3783 5.64256 31.9348C5.49876 31.7427 5.49876 31.4789 5.64256 31.2868L7.16187 29.1654C7.32272 28.941 7.32857 28.6406 7.17655 28.4101C6.11694 26.8064 5.37338 25.0149 4.98587 23.1322C4.93019 22.8618 4.7136 22.6537 4.4412 22.6088L1.87453 22.1881C1.63562 22.1486 1.4522 21.9549 1.42587 21.7141C1.30103 20.5675 1.30234 19.4105 1.42989 18.2642C1.46306 18.0339 1.64418 17.8531 1.87453 17.8202L4.44047 17.4002C4.71393 17.3554 4.93105 17.1461 4.98587 16.8744Z" fill="#B10C10"/>
<path d="M37.9997 18.0014C37.1551 18.0049 36.4039 18.5385 36.1223 19.3347H20.6665V17.3347H31.3331C32.4376 17.3347 33.333 16.4393 33.333 15.3348V11.8788C34.2514 11.5542 34.8022 10.6151 34.6375 9.65506C34.4728 8.69503 33.6404 7.99326 32.6663 7.99326C31.6923 7.99326 30.8599 8.69503 30.6951 9.65506C30.5304 10.6151 31.0813 11.5542 31.9996 11.8788V15.3348C31.9996 15.7029 31.7012 16.0015 31.3329 16.0015H20.6665V14.0015H27.9997C28.3679 14.0015 28.6664 13.703 28.6664 13.3348C28.6664 12.9665 28.3679 12.6681 27.9997 12.6681H20.6665V11.3348H24.6665C25.771 11.3348 26.6665 10.4394 26.6665 9.33474V5.21224C27.5848 4.88758 28.1357 3.94848 27.971 2.98846C27.8062 2.02843 26.9738 1.32666 25.9998 1.32666C25.0257 1.32666 24.1933 2.02843 24.0286 2.98846C23.8639 3.94848 24.4147 4.88758 25.3331 5.21224V9.33487C25.3331 9.70304 25.0346 10.0016 24.6664 10.0016H20.4905C20.2611 9.57529 19.8034 9.32283 19.3205 9.35626C13.7026 9.71212 9.32819 14.3723 9.32819 20.0015C9.32819 25.6307 13.7026 30.2909 19.3205 30.6467H19.3985C19.8539 30.6506 20.2741 30.4022 20.4905 30.0014H24.6664C25.0346 30.0014 25.3331 30.2999 25.3331 30.6681V34.7908C24.4147 35.1154 23.8639 36.0545 24.0286 37.0145C24.1933 37.9746 25.0257 38.6763 25.9998 38.6763C26.9738 38.6763 27.8062 37.9746 27.971 37.0145C28.1357 36.0545 27.5848 35.1154 26.6665 34.7908V30.6681C26.6665 29.5636 25.7711 28.6681 24.6665 28.6681H20.6665V27.3348H27.9997C28.3679 27.3348 28.6664 27.0363 28.6664 26.6682C28.6664 26.3 28.3679 26.0015 27.9997 26.0015H20.6665V24.0015H31.3331C31.7012 24.0015 31.9998 24.3 31.9998 24.6682V28.1241C31.0814 28.4488 30.5305 29.3879 30.6953 30.3479C30.86 31.3079 31.6924 32.0097 32.6665 32.0097C33.6405 32.0097 34.4729 31.3079 34.6376 30.3479C34.8024 29.3879 34.2515 28.4488 33.3331 28.1241V24.6682C33.3331 23.5636 32.4378 22.6682 31.3332 22.6682H20.6665V20.6681H36.1223C36.463 21.6245 37.4671 22.1729 38.456 21.9427C39.4447 21.7125 40.1034 20.7769 39.9867 19.7684C39.8698 18.76 39.0148 17.9996 37.9997 18.0014ZM32.6664 9.33487C33.0346 9.33487 33.333 9.63334 33.333 10.0016C33.333 10.3698 33.0346 10.6683 32.6664 10.6683C32.2982 10.6683 31.9998 10.3698 31.9998 10.0016C31.9998 9.63334 32.2982 9.33487 32.6664 9.33487ZM25.9998 2.66827C26.368 2.66827 26.6665 2.96674 26.6665 3.33497C26.6665 3.70319 26.368 4.00159 25.9998 4.00159C25.6316 4.00159 25.3332 3.70313 25.3332 3.33497C25.3332 2.9668 25.6316 2.66827 25.9998 2.66827ZM25.9998 37.3346C25.6316 37.3346 25.3332 37.0361 25.3332 36.6679C25.3332 36.2997 25.6316 36.0012 25.9998 36.0012C26.368 36.0012 26.6665 36.2997 26.6665 36.6679C26.6665 37.0361 26.368 37.3346 25.9998 37.3346ZM32.6664 30.668C32.2982 30.668 31.9998 30.3695 31.9998 30.0013C31.9998 29.6331 32.2982 29.3347 32.6664 29.3347C33.0346 29.3347 33.333 29.6331 33.333 30.0013C33.333 30.3695 33.0346 30.668 32.6664 30.668ZM10.6666 20.0014C10.6722 15.1077 14.4524 11.0473 19.3332 10.6922V29.3107C14.4524 28.9556 10.6722 24.8951 10.6666 20.0014ZM37.9997 20.6681C37.6315 20.6681 37.333 20.3696 37.333 20.0014C37.333 19.6331 37.6314 19.3347 37.9997 19.3347C38.3679 19.3347 38.6664 19.6332 38.6664 20.0014C38.6664 20.3695 38.3678 20.6681 37.9997 20.6681Z" fill="#B10C10"/>
</g>
<defs>
<clipPath id="clip0_1_3470">
<rect width="40" height="40" fill="white"/>
</clipPath>
</defs>
</svg>
