<svg width="618" height="570" viewBox="0 0 618 570" fill="none" xmlns="http://www.w3.org/2000/svg">
<path d="M373.866 142.63L373.866 142.63L331.816 173.215L332.01 173.676C332.009 173.677 332.009 173.677 332.008 173.677C331.549 173.871 331.339 174.376 331.521 174.841C331.664 175.173 332.001 175.386 332.337 175.386C332.456 175.386 332.567 175.369 332.69 175.318L332.691 175.318C351.908 167.365 366.641 156.387 375.322 143.644C375.596 143.231 375.498 142.689 375.1 142.409C374.674 142.135 374.122 142.245 373.866 142.63Z" stroke="#242424"/>
<path d="M332.659 164.318L332.667 164.314L332.675 164.311C351.916 156.333 366.633 145.379 375.314 132.645C375.588 132.232 375.49 131.69 375.092 131.41C374.679 131.145 374.122 131.258 373.857 131.655L373.857 131.655L373.854 131.66C365.341 144.138 350.848 154.863 332 162.703L332 162.703L331.988 162.707C331.544 162.879 331.331 163.405 331.512 163.84L331.512 163.84L331.515 163.847C331.652 164.192 331.976 164.387 332.329 164.387C332.445 164.387 332.552 164.366 332.659 164.318Z" stroke="#242424"/>
<path d="M331.512 152.833L331.512 152.833L331.515 152.841C331.652 153.185 331.976 153.38 332.329 153.38C332.455 153.38 332.576 153.364 332.696 153.328C351.911 145.351 366.636 134.376 375.314 121.631C375.592 121.211 375.483 120.684 375.097 120.431L375.097 120.432L375.086 120.424C374.677 120.141 374.123 120.25 373.857 120.649L373.857 120.649L373.854 120.653C365.341 133.132 350.848 143.856 332 151.696L332 151.696L331.988 151.701C331.544 151.872 331.331 152.398 331.512 152.833Z" stroke="#242424"/>
<path d="M193.274 175.31L193.291 175.316L193.307 175.324C193.393 175.368 193.488 175.386 193.62 175.386C193.952 175.386 194.286 175.184 194.445 174.83C194.622 174.372 194.406 173.864 193.955 173.668C175.107 165.86 160.632 155.136 152.103 142.626L152.102 142.625C151.837 142.234 151.29 142.129 150.867 142.4C150.464 142.69 150.371 143.226 150.643 143.636C159.316 156.378 174.049 167.357 193.274 175.31Z" stroke="#242424"/>
<path d="M193.274 164.311L193.291 164.318L193.307 164.326C193.393 164.369 193.488 164.387 193.62 164.387C193.961 164.387 194.289 164.193 194.445 163.831C194.623 163.394 194.402 162.87 193.966 162.698L193.966 162.698L193.957 162.694C175.11 154.855 160.617 144.139 152.103 131.652C151.826 131.251 151.273 131.141 150.867 131.401C150.464 131.691 150.371 132.227 150.643 132.637C159.316 145.379 174.041 156.333 193.274 164.311Z" stroke="#242424"/>
<path d="M150.871 120.432L150.871 120.432L150.86 120.44C150.474 120.692 150.365 121.219 150.643 121.639C159.313 134.376 174.038 145.351 193.253 153.328C193.373 153.364 193.494 153.38 193.62 153.38C193.967 153.38 194.292 153.189 194.446 152.839C194.623 152.402 194.402 151.88 193.966 151.707L193.966 151.707L193.957 151.704C175.109 143.864 160.616 133.14 152.103 120.661L152.102 120.66C151.827 120.255 151.277 120.151 150.871 120.432Z" stroke="#242424"/>
<mask id="path-7-inside-1_1_2275" fill="#242424">
<path d="M0.0325317 262.011C0.0325317 261.954 0.0487671 261.905 0.0487671 261.872C0.0650635 261.709 0.0732422 261.571 0.0895386 261.432C0.113953 261.294 0.130188 261.156 0.154602 261.05C0.179077 260.911 0.236023 260.806 0.276733 260.667C0.317444 260.529 0.358154 260.423 0.415161 260.285C0.472107 260.171 0.537231 260.065 0.610535 259.951C0.675659 259.812 0.732666 259.707 0.814087 259.593C0.895447 259.479 0.976929 259.397 1.05835 259.291C1.15601 259.177 1.23743 259.096 1.33508 258.99C1.4328 258.909 1.53052 258.827 1.63635 258.746C1.75031 258.665 1.87244 258.583 1.99457 258.502C2.03522 258.477 2.05969 258.445 2.1004 258.42L33.5414 240.266C33.5658 240.241 33.6065 240.241 33.6553 240.209C33.7938 240.152 33.9403 240.07 34.0787 240.013C34.2008 239.989 34.3148 239.932 34.4206 239.907C34.559 239.85 34.6812 239.826 34.8195 239.793C34.9579 239.769 35.0801 239.736 35.2022 239.736C35.3406 239.712 35.479 239.736 35.6011 239.736C35.7395 239.736 35.8779 239.712 36 239.736C36.1384 239.736 36.2605 239.761 36.3826 239.793C36.5211 239.818 36.6594 239.85 36.7979 239.907C36.9118 239.932 37.0177 239.989 37.1398 240.013C37.2782 240.07 37.4247 240.152 37.563 240.209C37.6038 240.233 37.6282 240.233 37.6771 240.266L92.0842 271.682V208.857C92.0842 208.833 92.1005 208.776 92.1005 208.743C92.1168 208.58 92.1249 208.385 92.1575 208.222C92.1738 208.141 92.1819 208.027 92.2145 207.921C92.2389 207.758 92.2958 207.62 92.3528 207.457C92.3936 207.343 92.418 207.261 92.4587 207.18C92.532 207.017 92.6215 206.846 92.7029 206.716C92.7599 206.635 92.8007 206.553 92.8414 206.496C92.9472 206.333 93.0611 206.219 93.1832 206.081C93.2565 206 93.3054 205.943 93.3624 205.886C93.4845 205.747 93.6229 205.666 93.7612 205.552C93.8427 205.495 93.9241 205.413 94.0055 205.356C94.0625 205.332 94.1032 205.275 94.1602 205.251L156.961 168.998C145.49 157.886 138.871 144.844 138.871 130.873V85.7064C138.871 61.0876 159.159 38.4716 193.327 24.8597V-38.0549C193.327 -39.5366 194.109 -40.9124 195.403 -41.6614L260.85 -79.4444C262.144 -80.1852 263.723 -80.1852 265.002 -79.4444L330.44 -41.6777C331.718 -40.9369 332.516 -39.561 332.516 -38.0712V24.8434C366.684 38.4635 386.972 61.0714 386.972 85.6901V130.857C386.972 144.827 380.353 157.869 368.882 168.982L431.683 205.234C431.707 205.259 431.74 205.291 431.781 205.316C431.919 205.397 432.041 205.511 432.18 205.593C432.261 205.674 432.359 205.731 432.44 205.812C432.554 205.926 432.644 206.032 432.741 206.146C432.823 206.26 432.904 206.342 432.961 206.423C433.059 206.561 433.124 206.667 433.205 206.806C433.262 206.92 433.319 207.001 433.36 207.107C433.425 207.245 433.482 207.384 433.523 207.546C433.564 207.66 433.604 207.766 433.62 207.848C433.661 208.01 433.677 208.149 433.702 208.287C433.718 208.426 433.726 208.564 433.743 208.67C433.743 208.727 433.759 208.776 433.759 208.833V271.658L488.182 240.241C488.207 240.217 488.247 240.217 488.296 240.184C488.435 240.103 488.581 240.046 488.736 239.989C488.834 239.932 488.956 239.907 489.07 239.85C489.192 239.826 489.33 239.793 489.469 239.769C489.607 239.745 489.729 239.712 489.851 239.712C489.99 239.688 490.128 239.688 490.266 239.688C490.389 239.688 490.527 239.688 490.649 239.712C490.787 239.712 490.926 239.736 491.048 239.769C491.186 239.793 491.308 239.826 491.447 239.85C491.561 239.907 491.683 239.932 491.805 239.989C491.943 240.046 492.082 240.103 492.204 240.184C492.245 240.209 492.285 240.209 492.326 240.241L523.775 258.412C523.816 258.437 523.84 258.469 523.881 258.494C524.003 258.575 524.125 258.656 524.256 258.77C524.353 258.827 524.451 258.909 524.541 258.99C524.638 259.104 524.736 259.186 524.817 259.291C524.915 259.397 524.996 259.487 525.062 259.593C525.143 259.707 525.216 259.812 525.281 259.951C525.338 260.065 525.403 260.171 525.46 260.285C525.517 260.423 525.558 260.529 525.615 260.667C525.656 260.806 525.697 260.911 525.721 261.05C525.745 261.164 525.762 261.294 525.786 261.432C525.802 261.571 525.827 261.709 525.827 261.872C525.827 261.897 525.843 261.954 525.843 262.011V324.836L580.25 293.419C580.291 293.395 580.332 293.362 580.372 293.362C580.511 293.281 580.633 293.224 580.771 293.167C580.893 293.11 581.015 293.053 581.154 293.028C581.268 293.004 581.39 292.971 581.496 292.947C581.65 292.922 581.781 292.89 581.935 292.865C582.058 292.865 582.172 292.865 582.277 292.865C582.432 292.865 582.579 292.865 582.733 292.865C582.855 292.89 582.969 292.922 583.091 292.947C583.246 292.971 583.376 293.004 583.515 293.028C583.629 293.053 583.751 293.11 583.857 293.167C583.995 293.224 584.134 293.281 584.272 293.362C584.313 293.362 584.353 293.386 584.394 293.419L615.835 311.574C615.876 311.574 615.9 311.631 615.949 311.631C616.087 311.712 616.21 311.826 616.324 311.907C616.421 311.989 616.519 312.07 616.608 312.152C616.706 312.233 616.804 312.347 616.885 312.453C616.983 312.534 617.064 312.648 617.146 312.754C617.211 312.868 617.284 312.974 617.349 313.088C617.423 313.202 617.471 313.308 617.528 313.446C617.585 313.56 617.642 313.69 617.683 313.829C617.724 313.943 617.765 314.073 617.797 314.187C617.821 314.325 617.854 314.464 617.862 314.57C617.878 314.732 617.903 314.871 617.903 315.009C617.903 315.066 617.919 315.123 617.919 315.148V507.62C617.919 509.102 617.138 510.478 615.843 511.194L449.162 607.446C448.885 607.609 448.584 607.723 448.283 607.805C447.9 607.91 447.501 608 447.102 608H447.086C446.646 608 446.223 607.919 445.775 607.756C445.531 607.674 445.27 607.593 445.034 607.455C445.018 607.455 445.018 607.455 445.018 607.455L413.577 589.3C413.536 589.275 413.512 589.243 413.463 589.219C413.341 589.137 413.219 589.056 413.089 588.974C412.991 588.893 412.893 588.811 412.796 588.73C412.698 588.616 412.616 588.535 412.519 588.429C412.437 588.315 412.34 588.233 412.274 588.128C412.193 588.022 412.12 587.908 412.055 587.769C411.998 587.655 411.933 587.55 411.876 587.436C411.819 587.297 411.778 587.191 411.721 587.053C411.68 586.914 411.639 586.809 411.615 586.67C411.591 586.556 411.574 586.426 411.55 586.288C411.534 586.149 411.509 586.011 411.509 585.848C411.509 585.824 411.493 585.767 411.493 585.71V522.885L357.07 554.301C356.793 554.464 356.492 554.578 356.207 554.659C355.808 554.798 355.409 554.855 355.01 554.855H354.994C354.578 554.855 354.179 554.773 353.772 554.659C353.479 554.578 353.211 554.464 352.95 554.301C352.934 554.301 352.934 554.301 352.934 554.301L321.493 536.146C321.452 536.122 321.428 536.089 321.379 536.065C321.24 535.984 321.135 535.902 321.004 535.821C320.907 535.739 320.809 535.658 320.719 535.577C320.622 535.495 320.54 535.381 320.443 535.275C320.361 535.194 320.264 535.08 320.182 534.974C320.117 534.86 320.044 534.754 319.979 534.64C319.922 534.535 319.856 534.396 319.799 534.282C319.742 534.168 319.685 534.038 319.645 533.9C319.604 533.786 319.563 533.655 319.531 533.541C319.506 533.403 319.474 533.265 319.466 533.126C319.449 532.988 319.425 532.849 319.425 532.711C319.425 532.654 319.409 532.605 319.409 532.573V469.748L264.985 501.164C264.709 501.302 264.407 501.441 264.122 501.522C263.723 501.628 263.325 501.718 262.926 501.718H262.909C262.51 501.718 262.095 501.636 261.688 501.498C261.403 501.417 261.126 501.302 260.866 501.164C260.85 501.164 260.85 501.164 260.85 501.164L206.443 469.748V532.573C206.443 532.597 206.426 532.654 206.426 532.711C206.426 532.849 206.402 532.988 206.386 533.151C206.369 533.256 206.345 533.395 206.32 533.509C206.296 533.647 206.255 533.786 206.206 533.891C206.149 534.03 206.109 534.168 206.052 534.274C205.995 534.388 205.93 534.518 205.873 534.632C205.807 534.746 205.734 534.852 205.669 534.966C205.588 535.08 205.49 535.186 205.409 535.267C205.311 535.381 205.229 535.487 205.132 535.568C205.034 535.65 204.936 535.731 204.847 535.813C204.725 535.894 204.611 535.976 204.472 536.057C204.432 536.081 204.407 536.114 204.358 536.138L172.917 554.293C172.901 554.293 172.901 554.293 172.901 554.293C172.624 554.456 172.339 554.57 172.038 554.676C171.639 554.79 171.24 554.871 170.841 554.871C170.442 554.871 170.027 554.79 169.645 554.676C169.343 554.562 169.05 554.456 168.782 554.293H168.765L2.07599 458.073C0.797791 457.332 -6.10352e-05 455.956 -6.10352e-05 454.499L0.0325317 262.011ZM35.6174 248.643L31.726 250.898L191.504 343.137L195.379 340.882L35.6174 248.643ZM24.749 254.92L184.518 347.15L188.727 344.733L28.9579 252.494L24.749 254.92ZM17.7802 258.933L177.542 351.197L181.75 348.746L21.981 256.507L17.7802 258.933ZM198.163 345.669L194.255 347.924V532.393L198.163 530.163V345.669ZM191.495 349.519L187.286 351.97V536.431L191.495 534.014V349.519ZM184.518 353.566L180.31 355.983V540.453L184.518 538.035V353.566ZM177.542 357.579L173.617 359.834V544.328L177.542 542.049V357.579ZM170.858 355.047L174.782 352.792L15.0122 260.529L11.1045 262.808L170.858 355.047ZM103.164 209.639L152.915 238.361C152.931 238.361 152.931 238.361 152.931 238.361L195.379 213.88C195.281 213.742 195.224 213.636 195.143 213.498C195.061 213.335 194.98 213.196 194.923 213.034C194.85 212.838 194.825 212.651 194.801 212.456C194.784 212.342 194.736 212.26 194.736 212.122V192.127C182.752 187.422 172.193 181.56 163.596 174.77L103.164 209.639ZM262.942 301.878L307.669 276.046L265.376 251.671L264.318 252.306H264.301C264.236 252.331 264.163 252.363 264.098 252.388C264.033 252.412 263.96 252.445 263.878 252.469C263.878 252.469 263.878 252.469 263.862 252.469C263.561 252.608 263.243 252.665 262.926 252.665C262.608 252.665 262.291 252.608 261.989 252.469H261.973C261.892 252.445 261.818 252.412 261.753 252.388C261.68 252.363 261.615 252.331 261.55 252.306L260.215 251.533L217.938 275.907L262.942 301.878ZM260.166 245.126V238.58L200.255 203.972V210.518L260.166 245.126ZM325.604 210.518V203.94L265.694 238.548V245.126L325.604 210.518ZM200.255 200.781L260.166 235.389V227.248L206.206 196.084C204.187 195.481 202.201 194.846 200.247 194.154V200.781H200.255ZM260.166 224.057V215.915L237.183 202.654C230.101 201.742 223.238 200.504 216.652 198.909L260.166 224.057ZM260.166 212.724V204.192C254.695 204.135 249.289 203.859 244.006 203.394L260.166 212.724ZM265.694 212.692L281.789 203.394C276.538 203.859 271.156 204.135 265.694 204.192V212.692ZM288.611 202.654L265.694 215.883V224.024L309.118 198.933C302.54 200.504 295.694 201.774 288.611 202.654ZM319.539 196.133L265.694 227.215V235.356L325.604 200.749V194.146C323.61 194.838 321.591 195.498 319.539 196.133ZM327.656 215.72L321.517 219.27L363.534 243.506C363.615 243.563 363.672 243.62 363.737 243.669L369.924 240.119L327.656 215.72ZM318.757 220.865L312.635 224.415L354.668 248.643C354.733 248.667 354.79 248.757 354.863 248.806L361.042 245.232L318.757 220.865ZM309.875 226.01L303.737 229.527L345.786 253.788C345.867 253.812 345.908 253.894 345.965 253.951L352.152 250.377L309.875 226.01ZM300.977 231.148L294.839 234.673L336.912 258.933C336.977 258.958 337.018 259.047 337.075 259.072L343.238 255.522L300.977 231.148ZM292.071 236.268L285.932 239.818L328.03 264.078C328.087 264.103 328.128 264.16 328.169 264.217L334.348 260.643L292.071 236.268ZM283.173 241.414L277.05 244.963L319.164 269.224C319.221 269.248 319.246 269.305 319.287 269.338L325.449 265.788L283.173 241.414ZM274.274 246.559L268.152 250.084L310.283 274.377C310.34 274.401 310.364 274.458 310.405 274.491L316.567 270.941L274.274 246.559ZM215.178 274.312L257.455 249.937L251.316 246.388L209.04 270.762L215.178 274.312ZM206.28 269.167L248.557 244.792L242.418 241.243L200.149 265.641L206.28 269.167ZM197.39 264.021L239.658 239.647L233.536 236.122L191.259 260.496L197.39 264.021ZM188.491 258.909L230.76 234.534L224.638 230.985L182.361 255.359L188.491 258.909ZM179.593 253.764L221.87 229.389L215.732 225.84L173.455 250.214L179.593 253.764ZM170.695 248.618L212.972 224.244L206.841 220.719L164.573 245.093L170.695 248.618ZM161.813 243.498L204.082 219.123L197.951 215.574L155.683 239.948L161.813 243.498ZM215.137 121.918L200.255 113.337V115.43C204.708 117.848 209.699 120.046 215.137 121.918ZM340.022 104.7C337.547 102.086 334.592 99.5789 331.14 97.2424V112.067C334.543 109.788 337.531 107.313 340.022 104.7ZM177.957 80.488C177.542 82.222 177.314 83.9561 177.314 85.6901C177.314 85.8855 177.338 86.0483 177.338 86.2437C182.011 81.5951 187.832 77.2722 194.719 73.3156V67.047C188.011 71.1664 182.41 75.6766 177.957 80.488ZM348.546 85.796C348.546 85.7715 348.546 85.739 348.546 85.682C348.546 83.7281 348.285 81.7743 347.764 79.853C343.311 75.1799 337.734 70.7756 331.132 66.762V73.0632C338.011 76.971 343.848 81.2288 348.546 85.796ZM200.255 76.1406L260.166 110.716V102.599L200.255 67.9913V76.1406ZM325.604 67.975L265.694 102.55V110.692L325.604 76.1162V67.975ZM325.604 45.302L265.694 79.9099V88.051L325.604 53.4431V45.302ZM324.228 0.794525L265.694 34.572V42.7132L324.228 8.90308V0.794525ZM260.166 34.6046L201.639 0.827095V8.96822L260.166 42.7457V34.6046ZM260.166 31.4133V23.2722L201.639 -10.5054V-2.36423L260.166 31.4133ZM265.694 31.3888L324.22 -2.42122V-10.5379L265.694 23.2396V31.3888ZM324.228 12.1351L265.694 45.9126V54.0537L324.228 20.2437V12.1351ZM260.166 45.937L201.639 12.1595V20.3007L260.166 54.0782V45.937ZM201.639 -13.6967L260.166 20.0808V11.9397L201.639 -21.8378V-13.6967ZM265.694 20.0564L324.22 -13.7537V-21.8704L265.694 11.9072V20.0564ZM325.604 30.7294C324.749 29.956 324.228 28.8895 324.228 27.6765V23.4675L265.694 57.2451V65.3862L325.604 30.7783V30.7294ZM260.166 99.4161V91.2749L200.255 56.6996V64.8163L260.166 99.4161ZM200.255 53.4757L260.166 88.0836V79.9425L200.255 45.3346V53.4757ZM260.166 57.2695L201.639 23.492V27.6765C201.639 28.8895 201.102 29.956 200.247 30.7294V30.8108L260.158 65.4187V57.2695H260.166ZM260.166 8.7484V1.29113L201.639 -32.4864V-25.0291L260.166 8.7484ZM262.926 -3.49585L321.452 -37.2734L262.926 -71.0834L204.399 -37.2734L262.926 -3.49585ZM265.694 1.29113V8.71583L324.22 -25.0617V-32.4864L265.694 1.29113ZM265.694 68.5775V76.7186L325.604 42.1107V33.9696L265.694 68.5775ZM265.694 91.2424V99.3591L325.604 64.7837V56.6426L265.694 91.2424ZM325.604 79.3075L265.694 113.883V122.024L325.604 87.4486V79.3075ZM260.166 113.94L200.255 79.3319V87.473L260.166 122.048V113.94ZM200.255 42.1433L260.166 76.7512V68.61L200.255 34.0347V42.1433ZM331.14 63.5707C336.367 66.6236 340.999 69.9289 345.004 73.4214C342.09 68.4391 337.409 63.7091 331.14 59.4757V63.5707ZM331.14 76.2546V82.4744C337.221 86.0483 342.513 89.9561 346.958 94.0836C347.536 92.5694 347.96 91.0063 348.22 89.4106C343.734 84.6969 338.027 80.2681 331.14 76.2546ZM345.753 96.7702C341.658 92.838 336.774 89.1257 331.132 85.7145V90.6969C336 93.6684 340.152 96.9167 343.555 100.377C344.394 99.1963 345.126 98.0076 345.753 96.7702ZM325.604 113.305L310.6 121.967C316.087 120.07 321.118 117.872 325.604 115.421V113.305ZM299.487 125.191L325.604 110.113V101.972L279.599 128.545C286.559 127.829 293.227 126.705 299.487 125.191ZM273.175 129.042L325.604 98.7811V90.6399L265.694 125.215V129.343C268.225 129.286 270.717 129.204 273.175 129.042ZM260.166 125.272L200.255 90.6644V98.8055L252.627 129.033C255.102 129.196 257.618 129.278 260.166 129.335V125.272ZM200.255 101.997V110.138L226.291 125.158C232.551 126.673 239.219 127.829 246.204 128.512L200.255 101.997ZM194.727 96.7702C191.512 99.0009 188.638 101.582 185.829 104.667C188.32 107.305 191.316 109.755 194.727 112.067V96.7702ZM182.288 100.352C186.073 96.3062 190.111 93.0334 194.719 90.2817V85.9588C189.135 89.3944 184.307 93.1148 180.261 97.047C180.863 98.1786 181.531 99.2777 182.288 100.352ZM179.031 94.4093C183.436 90.2573 188.687 86.3496 194.727 82.743V76.4988C187.848 80.5694 182.141 85.0226 177.713 89.8095C177.981 91.3564 178.429 92.895 179.031 94.4093ZM194.727 63.8149V59.5002C188.141 63.9289 183.281 68.9357 180.407 74.1867C184.502 70.5069 189.289 67.0388 194.727 63.8149ZM331.14 33.2532V52.9221C344.768 61.1772 352.73 71.6548 353.919 82.7919C354.122 83.1745 354.155 83.5897 354.017 83.9479C354.057 84.526 354.082 85.1039 354.082 85.682C354.082 92.6996 351.33 99.3835 346.421 105.432C346.266 105.929 346.022 106.426 345.582 106.808C345.379 106.971 345.143 107.085 344.923 107.191C341.113 111.4 336.22 115.275 330.424 118.743C330.041 119.158 329.544 119.427 328.966 119.565C312.334 129.001 288.904 134.887 262.95 134.887C236.98 134.887 213.55 129.001 196.917 119.565C196.339 119.427 195.835 119.15 195.444 118.711C189.501 115.185 184.494 111.172 180.643 106.824C180.562 106.767 180.448 106.743 180.383 106.662C180.041 106.385 179.821 106.027 179.65 105.644C174.603 99.5382 171.786 92.7973 171.786 85.6739C171.786 73.4622 179.927 61.8773 194.727 52.914V33.2694C164.882 45.5951 147.191 64.9628 147.191 85.6739V95.8828C155.87 127.706 204.464 152.138 262.942 152.138C321.411 152.138 370.006 127.715 378.684 95.8828V85.6739C378.684 64.971 360.985 45.6114 331.14 33.2532ZM378.684 130.857V109.487C361.905 137.517 316.364 157.706 262.942 157.706C209.504 157.706 163.97 137.517 147.191 109.487V130.857C147.191 143.899 154.054 156.029 165.826 166.206C166.323 166.483 166.746 166.865 167.105 167.337C187.946 184.588 223.124 195.945 262.942 195.945C302.76 195.945 337.946 184.58 358.763 167.337C359.121 166.873 359.544 166.483 360.041 166.238C371.805 156.029 378.684 143.891 378.684 130.857ZM331.14 192.119V212.114C331.14 212.252 331.083 212.333 331.075 212.447C331.05 212.643 331.034 212.83 330.961 213.025C330.904 213.188 330.823 213.327 330.725 213.489C330.643 213.628 330.562 213.791 330.432 213.929C330.391 213.953 330.375 214.043 330.318 214.067L372.407 238.361C372.505 238.418 372.562 238.475 372.644 238.556L422.711 209.647L362.288 174.77C353.683 181.552 343.132 187.413 331.14 192.119ZM510.872 260.529L351.102 352.792L355.018 355.047L514.796 262.808L510.872 260.529ZM503.903 256.515L344.125 348.754L348.35 351.205L508.112 258.933L503.903 256.515ZM496.926 252.469L337.156 344.733L341.349 347.15L501.135 254.92L496.926 252.469ZM352.266 359.834L348.35 357.579V542.049L352.266 544.304V359.834ZM345.574 355.983L341.349 353.533V538.027L345.574 540.445V355.983ZM338.589 351.937L334.38 349.519V533.989L338.589 536.44V351.937ZM331.62 347.924L327.729 345.669V530.163L331.62 532.393V347.924ZM334.38 343.137L494.166 250.873L490.258 248.643L330.489 340.882L334.38 343.137ZM602.956 313.699L443.186 405.929L447.102 408.184L606.88 315.962L602.956 313.699ZM595.987 309.685L436.218 401.916L440.426 404.334L600.196 312.111L595.987 309.685ZM588.994 305.639L429.232 397.878L433.458 400.328L593.203 308.089L588.994 305.639ZM444.334 413.004L440.426 410.724V595.219L444.334 597.474V413.004ZM437.658 409.129L433.433 406.711V591.18L437.658 593.631V409.129ZM430.673 405.115L426.464 402.697V587.167L430.673 589.585V405.115ZM423.705 401.069L419.813 398.838V583.308L423.705 585.563V401.069ZM426.464 396.282L586.234 304.043L582.342 301.788L422.573 394.051L426.464 396.282ZM609.64 320.741L449.87 413.004V597.474L609.64 505.243V320.741ZM411.517 505.047L381.574 522.323C381.354 522.461 381.118 522.518 380.874 522.518C380.41 522.518 379.938 522.274 379.677 521.834C379.303 521.175 379.523 520.32 380.182 519.938L411.517 501.864V493.284L381.55 510.583C381.33 510.689 381.094 510.779 380.866 510.779C380.386 510.779 379.913 510.534 379.669 510.062C379.287 509.403 379.506 508.581 380.166 508.19L411.525 490.092V481.511L381.525 498.811C381.306 498.95 381.07 499.007 380.842 499.007C380.361 499.007 379.905 498.762 379.645 498.323C379.262 497.663 379.49 496.809 380.158 496.426L411.534 478.328V469.837L381.509 487.056C381.289 487.161 381.053 487.218 380.825 487.218C380.345 487.218 379.873 486.974 379.629 486.535C379.246 485.875 379.474 485.02 380.133 484.638L411.534 466.646V457.927L381.493 475.284C381.273 475.422 381.037 475.479 380.809 475.479C380.329 475.479 379.857 475.235 379.612 474.795C379.23 474.136 379.458 473.281 380.117 472.898L411.534 454.743V447.758L381.428 463.552C381.224 463.658 381.004 463.715 380.785 463.715C380.288 463.715 379.808 463.438 379.563 462.974C379.205 462.29 379.466 461.46 380.141 461.102L411.542 444.624V434.391L381.46 451.772C381.241 451.886 381.004 451.935 380.776 451.935C380.296 451.935 379.824 451.69 379.58 451.251C379.197 450.591 379.417 449.737 380.076 449.354L411.542 431.199V422.619L381.436 440C381.232 440.138 380.98 440.195 380.752 440.195C380.288 440.195 379.816 439.951 379.555 439.511C379.173 438.828 379.401 437.997 380.068 437.615L411.55 419.435V410.855L381.428 428.244C381.208 428.382 380.964 428.439 380.728 428.439C380.264 428.439 379.791 428.195 379.531 427.756C379.148 427.096 379.376 426.241 380.044 425.859L411.558 407.68V399.099L381.411 416.513C381.192 416.627 380.956 416.676 380.728 416.676C380.247 416.676 379.775 416.431 379.531 415.992C379.148 415.332 379.376 414.477 380.036 414.119L411.558 395.908V393.294C411.558 391.813 412.356 390.437 413.634 389.688L517.604 329.663V326.171L381.387 404.733C381.167 404.871 380.931 404.928 380.703 404.928C380.223 404.928 379.751 404.684 379.49 404.244C379.116 403.585 379.335 402.73 379.995 402.347L517.604 322.955V314.374L381.371 392.969C381.151 393.107 380.907 393.164 380.671 393.164C380.207 393.164 379.734 392.92 379.474 392.48C379.091 391.821 379.319 390.966 379.979 390.583L517.604 311.191V302.61L381.346 381.229C381.127 381.343 380.882 381.424 380.646 381.424C380.182 381.424 379.71 381.148 379.449 380.708C379.075 380.049 379.295 379.226 379.954 378.836L517.604 299.419V267.644L357.835 359.875V544.345L411.558 513.343V505.047H411.517ZM319.433 451.878L289.49 469.178C289.27 469.283 289.034 469.373 288.79 469.373C288.326 469.373 287.854 469.129 287.593 468.657C287.219 467.997 287.439 467.175 288.098 466.784L319.433 448.686V440.106L289.466 457.406C289.246 457.544 289.01 457.601 288.782 457.601C288.301 457.601 287.829 457.357 287.585 456.917C287.202 456.258 287.422 455.403 288.082 455.02L319.441 436.923V428.342L289.458 445.642C289.238 445.78 288.993 445.837 288.757 445.837C288.293 445.837 287.821 445.593 287.561 445.153C287.178 444.494 287.406 443.639 288.065 443.256L319.441 425.159V416.684L289.433 433.902C289.213 434.041 288.977 434.098 288.749 434.098C288.269 434.098 287.797 433.853 287.553 433.381C287.17 432.722 287.398 431.899 288.057 431.509L319.441 413.492V404.798L289.417 422.13C289.197 422.268 288.953 422.326 288.717 422.326C288.253 422.326 287.78 422.081 287.52 421.642C287.137 420.982 287.365 420.127 288.033 419.745L319.449 401.615V394.597L289.344 410.415C289.14 410.496 288.92 410.553 288.7 410.553C288.204 410.553 287.724 410.277 287.479 409.813C287.137 409.153 287.398 408.298 288.074 407.94L319.458 391.487V381.229L289.376 398.61C289.156 398.724 288.92 398.806 288.692 398.806C288.212 398.806 287.74 398.562 287.496 398.089C287.113 397.43 287.333 396.608 288 396.217L319.458 378.038V369.457L289.352 386.838C289.132 386.977 288.896 387.034 288.668 387.034C288.204 387.034 287.732 386.79 287.471 386.35C287.089 385.69 287.316 384.836 287.976 384.453L319.458 366.274V357.693L289.335 375.107C289.116 375.221 288.871 375.302 288.635 375.302C288.171 375.302 287.699 375.058 287.439 374.586C287.056 373.927 287.284 373.104 287.943 372.714L319.458 354.502V345.921L289.311 363.335C289.091 363.449 288.855 363.53 288.627 363.53C288.147 363.53 287.675 363.286 287.43 362.814C287.048 362.154 287.276 361.332 287.935 360.941L319.458 342.73V340.116C319.458 338.635 320.239 337.259 321.534 336.51L425.504 276.485V272.993L289.287 351.555C289.067 351.693 288.831 351.75 288.603 351.75C288.122 351.75 287.65 351.506 287.406 351.066C287.023 350.407 287.243 349.552 287.903 349.169L425.512 269.81V261.229L289.278 339.823C289.059 339.937 288.823 339.986 288.595 339.986C288.114 339.986 287.642 339.742 287.398 339.302C287.015 338.643 287.235 337.821 287.894 337.43L425.52 258.038V249.457L289.262 328.051C289.042 328.19 288.798 328.247 288.562 328.247C288.098 328.247 287.626 328.002 287.365 327.563C286.991 326.903 287.211 326.049 287.87 325.666L425.52 246.274V214.475L265.751 306.705V491.199L319.474 460.174V451.878H319.433ZM209.479 461.891L209.536 304.654C209.536 303.88 210.155 303.253 210.928 303.253C211.685 303.253 212.304 303.888 212.304 304.654L212.247 463.487L219.688 467.777L219.745 310.483C219.745 309.742 220.364 309.107 221.121 309.107C221.894 309.107 222.513 309.742 222.513 310.483L222.456 469.373L229.881 473.663L229.938 316.369C229.938 315.595 230.557 314.968 231.33 314.968C232.087 314.968 232.706 315.604 232.706 316.369L232.665 475.259L260.19 491.159V306.656L100.413 214.426V276.453L107.552 280.58V246.005C107.552 245.264 108.171 244.629 108.928 244.629C109.702 244.629 110.32 245.264 110.32 246.005V282.176L117.761 286.491V251.883C117.761 251.11 118.38 250.483 119.137 250.483C119.911 250.483 120.529 251.118 120.529 251.883V288.087L127.954 292.377V257.745C127.954 256.971 128.573 256.344 129.346 256.344C130.103 256.344 130.722 256.979 130.722 257.745V293.973L138.065 298.206L138.147 263.574C138.163 262.833 138.782 262.198 139.539 262.198C140.312 262.198 140.931 262.833 140.931 263.598L140.817 299.769L148.356 304.141V269.452C148.356 268.678 148.974 268.076 149.748 268.076C150.521 268.076 151.14 268.678 151.14 269.452L151.124 305.737L157.189 309.229L158.565 275.256C158.605 274.483 159.224 273.88 160.006 273.937C160.763 273.962 161.357 274.597 161.324 275.37L159.883 310.8L168.757 315.913L168.774 281.167C168.774 280.393 169.392 279.791 170.149 279.791C170.923 279.791 171.542 280.393 171.542 281.167L171.525 317.509L178.966 321.799V287.028C178.966 286.287 179.585 285.652 180.342 285.652C181.115 285.652 181.734 286.287 181.734 287.028V323.395L189.159 327.685V292.89C189.159 292.116 189.778 291.514 190.551 291.514C191.308 291.514 191.927 292.116 191.927 292.89V329.281L199.368 333.571V298.743C199.368 298.002 199.987 297.367 200.76 297.367C201.517 297.367 202.136 298.002 202.136 298.743V335.167L204.407 336.486C205.685 337.226 206.483 338.578 206.483 340.059V460.108L209.479 461.891ZM168.098 544.328V359.834L8.32831 267.603V452.098L168.098 544.328Z"/>
</mask>
<path d="M0.0325317 262.011C0.0325317 261.954 0.0487671 261.905 0.0487671 261.872C0.0650635 261.709 0.0732422 261.571 0.0895386 261.432C0.113953 261.294 0.130188 261.156 0.154602 261.05C0.179077 260.911 0.236023 260.806 0.276733 260.667C0.317444 260.529 0.358154 260.423 0.415161 260.285C0.472107 260.171 0.537231 260.065 0.610535 259.951C0.675659 259.812 0.732666 259.707 0.814087 259.593C0.895447 259.479 0.976929 259.397 1.05835 259.291C1.15601 259.177 1.23743 259.096 1.33508 258.99C1.4328 258.909 1.53052 258.827 1.63635 258.746C1.75031 258.665 1.87244 258.583 1.99457 258.502C2.03522 258.477 2.05969 258.445 2.1004 258.42L33.5414 240.266C33.5658 240.241 33.6065 240.241 33.6553 240.209C33.7938 240.152 33.9403 240.07 34.0787 240.013C34.2008 239.989 34.3148 239.932 34.4206 239.907C34.559 239.85 34.6812 239.826 34.8195 239.793C34.9579 239.769 35.0801 239.736 35.2022 239.736C35.3406 239.712 35.479 239.736 35.6011 239.736C35.7395 239.736 35.8779 239.712 36 239.736C36.1384 239.736 36.2605 239.761 36.3826 239.793C36.5211 239.818 36.6594 239.85 36.7979 239.907C36.9118 239.932 37.0177 239.989 37.1398 240.013C37.2782 240.07 37.4247 240.152 37.563 240.209C37.6038 240.233 37.6282 240.233 37.6771 240.266L92.0842 271.682V208.857C92.0842 208.833 92.1005 208.776 92.1005 208.743C92.1168 208.58 92.1249 208.385 92.1575 208.222C92.1738 208.141 92.1819 208.027 92.2145 207.921C92.2389 207.758 92.2958 207.62 92.3528 207.457C92.3936 207.343 92.418 207.261 92.4587 207.18C92.532 207.017 92.6215 206.846 92.7029 206.716C92.7599 206.635 92.8007 206.553 92.8414 206.496C92.9472 206.333 93.0611 206.219 93.1832 206.081C93.2565 206 93.3054 205.943 93.3624 205.886C93.4845 205.747 93.6229 205.666 93.7612 205.552C93.8427 205.495 93.9241 205.413 94.0055 205.356C94.0625 205.332 94.1032 205.275 94.1602 205.251L156.961 168.998C145.49 157.886 138.871 144.844 138.871 130.873V85.7064C138.871 61.0876 159.159 38.4716 193.327 24.8597V-38.0549C193.327 -39.5366 194.109 -40.9124 195.403 -41.6614L260.85 -79.4444C262.144 -80.1852 263.723 -80.1852 265.002 -79.4444L330.44 -41.6777C331.718 -40.9369 332.516 -39.561 332.516 -38.0712V24.8434C366.684 38.4635 386.972 61.0714 386.972 85.6901V130.857C386.972 144.827 380.353 157.869 368.882 168.982L431.683 205.234C431.707 205.259 431.74 205.291 431.781 205.316C431.919 205.397 432.041 205.511 432.18 205.593C432.261 205.674 432.359 205.731 432.44 205.812C432.554 205.926 432.644 206.032 432.741 206.146C432.823 206.26 432.904 206.342 432.961 206.423C433.059 206.561 433.124 206.667 433.205 206.806C433.262 206.92 433.319 207.001 433.36 207.107C433.425 207.245 433.482 207.384 433.523 207.546C433.564 207.66 433.604 207.766 433.62 207.848C433.661 208.01 433.677 208.149 433.702 208.287C433.718 208.426 433.726 208.564 433.743 208.67C433.743 208.727 433.759 208.776 433.759 208.833V271.658L488.182 240.241C488.207 240.217 488.247 240.217 488.296 240.184C488.435 240.103 488.581 240.046 488.736 239.989C488.834 239.932 488.956 239.907 489.07 239.85C489.192 239.826 489.33 239.793 489.469 239.769C489.607 239.745 489.729 239.712 489.851 239.712C489.99 239.688 490.128 239.688 490.266 239.688C490.389 239.688 490.527 239.688 490.649 239.712C490.787 239.712 490.926 239.736 491.048 239.769C491.186 239.793 491.308 239.826 491.447 239.85C491.561 239.907 491.683 239.932 491.805 239.989C491.943 240.046 492.082 240.103 492.204 240.184C492.245 240.209 492.285 240.209 492.326 240.241L523.775 258.412C523.816 258.437 523.84 258.469 523.881 258.494C524.003 258.575 524.125 258.656 524.256 258.77C524.353 258.827 524.451 258.909 524.541 258.99C524.638 259.104 524.736 259.186 524.817 259.291C524.915 259.397 524.996 259.487 525.062 259.593C525.143 259.707 525.216 259.812 525.281 259.951C525.338 260.065 525.403 260.171 525.46 260.285C525.517 260.423 525.558 260.529 525.615 260.667C525.656 260.806 525.697 260.911 525.721 261.05C525.745 261.164 525.762 261.294 525.786 261.432C525.802 261.571 525.827 261.709 525.827 261.872C525.827 261.897 525.843 261.954 525.843 262.011V324.836L580.25 293.419C580.291 293.395 580.332 293.362 580.372 293.362C580.511 293.281 580.633 293.224 580.771 293.167C580.893 293.11 581.015 293.053 581.154 293.028C581.268 293.004 581.39 292.971 581.496 292.947C581.65 292.922 581.781 292.89 581.935 292.865C582.058 292.865 582.172 292.865 582.277 292.865C582.432 292.865 582.579 292.865 582.733 292.865C582.855 292.89 582.969 292.922 583.091 292.947C583.246 292.971 583.376 293.004 583.515 293.028C583.629 293.053 583.751 293.11 583.857 293.167C583.995 293.224 584.134 293.281 584.272 293.362C584.313 293.362 584.353 293.386 584.394 293.419L615.835 311.574C615.876 311.574 615.9 311.631 615.949 311.631C616.087 311.712 616.21 311.826 616.324 311.907C616.421 311.989 616.519 312.07 616.608 312.152C616.706 312.233 616.804 312.347 616.885 312.453C616.983 312.534 617.064 312.648 617.146 312.754C617.211 312.868 617.284 312.974 617.349 313.088C617.423 313.202 617.471 313.308 617.528 313.446C617.585 313.56 617.642 313.69 617.683 313.829C617.724 313.943 617.765 314.073 617.797 314.187C617.821 314.325 617.854 314.464 617.862 314.57C617.878 314.732 617.903 314.871 617.903 315.009C617.903 315.066 617.919 315.123 617.919 315.148V507.62C617.919 509.102 617.138 510.478 615.843 511.194L449.162 607.446C448.885 607.609 448.584 607.723 448.283 607.805C447.9 607.91 447.501 608 447.102 608H447.086C446.646 608 446.223 607.919 445.775 607.756C445.531 607.674 445.27 607.593 445.034 607.455C445.018 607.455 445.018 607.455 445.018 607.455L413.577 589.3C413.536 589.275 413.512 589.243 413.463 589.219C413.341 589.137 413.219 589.056 413.089 588.974C412.991 588.893 412.893 588.811 412.796 588.73C412.698 588.616 412.616 588.535 412.519 588.429C412.437 588.315 412.34 588.233 412.274 588.128C412.193 588.022 412.12 587.908 412.055 587.769C411.998 587.655 411.933 587.55 411.876 587.436C411.819 587.297 411.778 587.191 411.721 587.053C411.68 586.914 411.639 586.809 411.615 586.67C411.591 586.556 411.574 586.426 411.55 586.288C411.534 586.149 411.509 586.011 411.509 585.848C411.509 585.824 411.493 585.767 411.493 585.71V522.885L357.07 554.301C356.793 554.464 356.492 554.578 356.207 554.659C355.808 554.798 355.409 554.855 355.01 554.855H354.994C354.578 554.855 354.179 554.773 353.772 554.659C353.479 554.578 353.211 554.464 352.95 554.301C352.934 554.301 352.934 554.301 352.934 554.301L321.493 536.146C321.452 536.122 321.428 536.089 321.379 536.065C321.24 535.984 321.135 535.902 321.004 535.821C320.907 535.739 320.809 535.658 320.719 535.577C320.622 535.495 320.54 535.381 320.443 535.275C320.361 535.194 320.264 535.08 320.182 534.974C320.117 534.86 320.044 534.754 319.979 534.64C319.922 534.535 319.856 534.396 319.799 534.282C319.742 534.168 319.685 534.038 319.645 533.9C319.604 533.786 319.563 533.655 319.531 533.541C319.506 533.403 319.474 533.265 319.466 533.126C319.449 532.988 319.425 532.849 319.425 532.711C319.425 532.654 319.409 532.605 319.409 532.573V469.748L264.985 501.164C264.709 501.302 264.407 501.441 264.122 501.522C263.723 501.628 263.325 501.718 262.926 501.718H262.909C262.51 501.718 262.095 501.636 261.688 501.498C261.403 501.417 261.126 501.302 260.866 501.164C260.85 501.164 260.85 501.164 260.85 501.164L206.443 469.748V532.573C206.443 532.597 206.426 532.654 206.426 532.711C206.426 532.849 206.402 532.988 206.386 533.151C206.369 533.256 206.345 533.395 206.32 533.509C206.296 533.647 206.255 533.786 206.206 533.891C206.149 534.03 206.109 534.168 206.052 534.274C205.995 534.388 205.93 534.518 205.873 534.632C205.807 534.746 205.734 534.852 205.669 534.966C205.588 535.08 205.49 535.186 205.409 535.267C205.311 535.381 205.229 535.487 205.132 535.568C205.034 535.65 204.936 535.731 204.847 535.813C204.725 535.894 204.611 535.976 204.472 536.057C204.432 536.081 204.407 536.114 204.358 536.138L172.917 554.293C172.901 554.293 172.901 554.293 172.901 554.293C172.624 554.456 172.339 554.57 172.038 554.676C171.639 554.79 171.24 554.871 170.841 554.871C170.442 554.871 170.027 554.79 169.645 554.676C169.343 554.562 169.05 554.456 168.782 554.293H168.765L2.07599 458.073C0.797791 457.332 -6.10352e-05 455.956 -6.10352e-05 454.499L0.0325317 262.011ZM35.6174 248.643L31.726 250.898L191.504 343.137L195.379 340.882L35.6174 248.643ZM24.749 254.92L184.518 347.15L188.727 344.733L28.9579 252.494L24.749 254.92ZM17.7802 258.933L177.542 351.197L181.75 348.746L21.981 256.507L17.7802 258.933ZM198.163 345.669L194.255 347.924V532.393L198.163 530.163V345.669ZM191.495 349.519L187.286 351.97V536.431L191.495 534.014V349.519ZM184.518 353.566L180.31 355.983V540.453L184.518 538.035V353.566ZM177.542 357.579L173.617 359.834V544.328L177.542 542.049V357.579ZM170.858 355.047L174.782 352.792L15.0122 260.529L11.1045 262.808L170.858 355.047ZM103.164 209.639L152.915 238.361C152.931 238.361 152.931 238.361 152.931 238.361L195.379 213.88C195.281 213.742 195.224 213.636 195.143 213.498C195.061 213.335 194.98 213.196 194.923 213.034C194.85 212.838 194.825 212.651 194.801 212.456C194.784 212.342 194.736 212.26 194.736 212.122V192.127C182.752 187.422 172.193 181.56 163.596 174.77L103.164 209.639ZM262.942 301.878L307.669 276.046L265.376 251.671L264.318 252.306H264.301C264.236 252.331 264.163 252.363 264.098 252.388C264.033 252.412 263.96 252.445 263.878 252.469C263.878 252.469 263.878 252.469 263.862 252.469C263.561 252.608 263.243 252.665 262.926 252.665C262.608 252.665 262.291 252.608 261.989 252.469H261.973C261.892 252.445 261.818 252.412 261.753 252.388C261.68 252.363 261.615 252.331 261.55 252.306L260.215 251.533L217.938 275.907L262.942 301.878ZM260.166 245.126V238.58L200.255 203.972V210.518L260.166 245.126ZM325.604 210.518V203.94L265.694 238.548V245.126L325.604 210.518ZM200.255 200.781L260.166 235.389V227.248L206.206 196.084C204.187 195.481 202.201 194.846 200.247 194.154V200.781H200.255ZM260.166 224.057V215.915L237.183 202.654C230.101 201.742 223.238 200.504 216.652 198.909L260.166 224.057ZM260.166 212.724V204.192C254.695 204.135 249.289 203.859 244.006 203.394L260.166 212.724ZM265.694 212.692L281.789 203.394C276.538 203.859 271.156 204.135 265.694 204.192V212.692ZM288.611 202.654L265.694 215.883V224.024L309.118 198.933C302.54 200.504 295.694 201.774 288.611 202.654ZM319.539 196.133L265.694 227.215V235.356L325.604 200.749V194.146C323.61 194.838 321.591 195.498 319.539 196.133ZM327.656 215.72L321.517 219.27L363.534 243.506C363.615 243.563 363.672 243.62 363.737 243.669L369.924 240.119L327.656 215.72ZM318.757 220.865L312.635 224.415L354.668 248.643C354.733 248.667 354.79 248.757 354.863 248.806L361.042 245.232L318.757 220.865ZM309.875 226.01L303.737 229.527L345.786 253.788C345.867 253.812 345.908 253.894 345.965 253.951L352.152 250.377L309.875 226.01ZM300.977 231.148L294.839 234.673L336.912 258.933C336.977 258.958 337.018 259.047 337.075 259.072L343.238 255.522L300.977 231.148ZM292.071 236.268L285.932 239.818L328.03 264.078C328.087 264.103 328.128 264.16 328.169 264.217L334.348 260.643L292.071 236.268ZM283.173 241.414L277.05 244.963L319.164 269.224C319.221 269.248 319.246 269.305 319.287 269.338L325.449 265.788L283.173 241.414ZM274.274 246.559L268.152 250.084L310.283 274.377C310.34 274.401 310.364 274.458 310.405 274.491L316.567 270.941L274.274 246.559ZM215.178 274.312L257.455 249.937L251.316 246.388L209.04 270.762L215.178 274.312ZM206.28 269.167L248.557 244.792L242.418 241.243L200.149 265.641L206.28 269.167ZM197.39 264.021L239.658 239.647L233.536 236.122L191.259 260.496L197.39 264.021ZM188.491 258.909L230.76 234.534L224.638 230.985L182.361 255.359L188.491 258.909ZM179.593 253.764L221.87 229.389L215.732 225.84L173.455 250.214L179.593 253.764ZM170.695 248.618L212.972 224.244L206.841 220.719L164.573 245.093L170.695 248.618ZM161.813 243.498L204.082 219.123L197.951 215.574L155.683 239.948L161.813 243.498ZM215.137 121.918L200.255 113.337V115.43C204.708 117.848 209.699 120.046 215.137 121.918ZM340.022 104.7C337.547 102.086 334.592 99.5789 331.14 97.2424V112.067C334.543 109.788 337.531 107.313 340.022 104.7ZM177.957 80.488C177.542 82.222 177.314 83.9561 177.314 85.6901C177.314 85.8855 177.338 86.0483 177.338 86.2437C182.011 81.5951 187.832 77.2722 194.719 73.3156V67.047C188.011 71.1664 182.41 75.6766 177.957 80.488ZM348.546 85.796C348.546 85.7715 348.546 85.739 348.546 85.682C348.546 83.7281 348.285 81.7743 347.764 79.853C343.311 75.1799 337.734 70.7756 331.132 66.762V73.0632C338.011 76.971 343.848 81.2288 348.546 85.796ZM200.255 76.1406L260.166 110.716V102.599L200.255 67.9913V76.1406ZM325.604 67.975L265.694 102.55V110.692L325.604 76.1162V67.975ZM325.604 45.302L265.694 79.9099V88.051L325.604 53.4431V45.302ZM324.228 0.794525L265.694 34.572V42.7132L324.228 8.90308V0.794525ZM260.166 34.6046L201.639 0.827095V8.96822L260.166 42.7457V34.6046ZM260.166 31.4133V23.2722L201.639 -10.5054V-2.36423L260.166 31.4133ZM265.694 31.3888L324.22 -2.42122V-10.5379L265.694 23.2396V31.3888ZM324.228 12.1351L265.694 45.9126V54.0537L324.228 20.2437V12.1351ZM260.166 45.937L201.639 12.1595V20.3007L260.166 54.0782V45.937ZM201.639 -13.6967L260.166 20.0808V11.9397L201.639 -21.8378V-13.6967ZM265.694 20.0564L324.22 -13.7537V-21.8704L265.694 11.9072V20.0564ZM325.604 30.7294C324.749 29.956 324.228 28.8895 324.228 27.6765V23.4675L265.694 57.2451V65.3862L325.604 30.7783V30.7294ZM260.166 99.4161V91.2749L200.255 56.6996V64.8163L260.166 99.4161ZM200.255 53.4757L260.166 88.0836V79.9425L200.255 45.3346V53.4757ZM260.166 57.2695L201.639 23.492V27.6765C201.639 28.8895 201.102 29.956 200.247 30.7294V30.8108L260.158 65.4187V57.2695H260.166ZM260.166 8.7484V1.29113L201.639 -32.4864V-25.0291L260.166 8.7484ZM262.926 -3.49585L321.452 -37.2734L262.926 -71.0834L204.399 -37.2734L262.926 -3.49585ZM265.694 1.29113V8.71583L324.22 -25.0617V-32.4864L265.694 1.29113ZM265.694 68.5775V76.7186L325.604 42.1107V33.9696L265.694 68.5775ZM265.694 91.2424V99.3591L325.604 64.7837V56.6426L265.694 91.2424ZM325.604 79.3075L265.694 113.883V122.024L325.604 87.4486V79.3075ZM260.166 113.94L200.255 79.3319V87.473L260.166 122.048V113.94ZM200.255 42.1433L260.166 76.7512V68.61L200.255 34.0347V42.1433ZM331.14 63.5707C336.367 66.6236 340.999 69.9289 345.004 73.4214C342.09 68.4391 337.409 63.7091 331.14 59.4757V63.5707ZM331.14 76.2546V82.4744C337.221 86.0483 342.513 89.9561 346.958 94.0836C347.536 92.5694 347.96 91.0063 348.22 89.4106C343.734 84.6969 338.027 80.2681 331.14 76.2546ZM345.753 96.7702C341.658 92.838 336.774 89.1257 331.132 85.7145V90.6969C336 93.6684 340.152 96.9167 343.555 100.377C344.394 99.1963 345.126 98.0076 345.753 96.7702ZM325.604 113.305L310.6 121.967C316.087 120.07 321.118 117.872 325.604 115.421V113.305ZM299.487 125.191L325.604 110.113V101.972L279.599 128.545C286.559 127.829 293.227 126.705 299.487 125.191ZM273.175 129.042L325.604 98.7811V90.6399L265.694 125.215V129.343C268.225 129.286 270.717 129.204 273.175 129.042ZM260.166 125.272L200.255 90.6644V98.8055L252.627 129.033C255.102 129.196 257.618 129.278 260.166 129.335V125.272ZM200.255 101.997V110.138L226.291 125.158C232.551 126.673 239.219 127.829 246.204 128.512L200.255 101.997ZM194.727 96.7702C191.512 99.0009 188.638 101.582 185.829 104.667C188.32 107.305 191.316 109.755 194.727 112.067V96.7702ZM182.288 100.352C186.073 96.3062 190.111 93.0334 194.719 90.2817V85.9588C189.135 89.3944 184.307 93.1148 180.261 97.047C180.863 98.1786 181.531 99.2777 182.288 100.352ZM179.031 94.4093C183.436 90.2573 188.687 86.3496 194.727 82.743V76.4988C187.848 80.5694 182.141 85.0226 177.713 89.8095C177.981 91.3564 178.429 92.895 179.031 94.4093ZM194.727 63.8149V59.5002C188.141 63.9289 183.281 68.9357 180.407 74.1867C184.502 70.5069 189.289 67.0388 194.727 63.8149ZM331.14 33.2532V52.9221C344.768 61.1772 352.73 71.6548 353.919 82.7919C354.122 83.1745 354.155 83.5897 354.017 83.9479C354.057 84.526 354.082 85.1039 354.082 85.682C354.082 92.6996 351.33 99.3835 346.421 105.432C346.266 105.929 346.022 106.426 345.582 106.808C345.379 106.971 345.143 107.085 344.923 107.191C341.113 111.4 336.22 115.275 330.424 118.743C330.041 119.158 329.544 119.427 328.966 119.565C312.334 129.001 288.904 134.887 262.95 134.887C236.98 134.887 213.55 129.001 196.917 119.565C196.339 119.427 195.835 119.15 195.444 118.711C189.501 115.185 184.494 111.172 180.643 106.824C180.562 106.767 180.448 106.743 180.383 106.662C180.041 106.385 179.821 106.027 179.65 105.644C174.603 99.5382 171.786 92.7973 171.786 85.6739C171.786 73.4622 179.927 61.8773 194.727 52.914V33.2694C164.882 45.5951 147.191 64.9628 147.191 85.6739V95.8828C155.87 127.706 204.464 152.138 262.942 152.138C321.411 152.138 370.006 127.715 378.684 95.8828V85.6739C378.684 64.971 360.985 45.6114 331.14 33.2532ZM378.684 130.857V109.487C361.905 137.517 316.364 157.706 262.942 157.706C209.504 157.706 163.97 137.517 147.191 109.487V130.857C147.191 143.899 154.054 156.029 165.826 166.206C166.323 166.483 166.746 166.865 167.105 167.337C187.946 184.588 223.124 195.945 262.942 195.945C302.76 195.945 337.946 184.58 358.763 167.337C359.121 166.873 359.544 166.483 360.041 166.238C371.805 156.029 378.684 143.891 378.684 130.857ZM331.14 192.119V212.114C331.14 212.252 331.083 212.333 331.075 212.447C331.05 212.643 331.034 212.83 330.961 213.025C330.904 213.188 330.823 213.327 330.725 213.489C330.643 213.628 330.562 213.791 330.432 213.929C330.391 213.953 330.375 214.043 330.318 214.067L372.407 238.361C372.505 238.418 372.562 238.475 372.644 238.556L422.711 209.647L362.288 174.77C353.683 181.552 343.132 187.413 331.14 192.119ZM510.872 260.529L351.102 352.792L355.018 355.047L514.796 262.808L510.872 260.529ZM503.903 256.515L344.125 348.754L348.35 351.205L508.112 258.933L503.903 256.515ZM496.926 252.469L337.156 344.733L341.349 347.15L501.135 254.92L496.926 252.469ZM352.266 359.834L348.35 357.579V542.049L352.266 544.304V359.834ZM345.574 355.983L341.349 353.533V538.027L345.574 540.445V355.983ZM338.589 351.937L334.38 349.519V533.989L338.589 536.44V351.937ZM331.62 347.924L327.729 345.669V530.163L331.62 532.393V347.924ZM334.38 343.137L494.166 250.873L490.258 248.643L330.489 340.882L334.38 343.137ZM602.956 313.699L443.186 405.929L447.102 408.184L606.88 315.962L602.956 313.699ZM595.987 309.685L436.218 401.916L440.426 404.334L600.196 312.111L595.987 309.685ZM588.994 305.639L429.232 397.878L433.458 400.328L593.203 308.089L588.994 305.639ZM444.334 413.004L440.426 410.724V595.219L444.334 597.474V413.004ZM437.658 409.129L433.433 406.711V591.18L437.658 593.631V409.129ZM430.673 405.115L426.464 402.697V587.167L430.673 589.585V405.115ZM423.705 401.069L419.813 398.838V583.308L423.705 585.563V401.069ZM426.464 396.282L586.234 304.043L582.342 301.788L422.573 394.051L426.464 396.282ZM609.64 320.741L449.87 413.004V597.474L609.64 505.243V320.741ZM411.517 505.047L381.574 522.323C381.354 522.461 381.118 522.518 380.874 522.518C380.41 522.518 379.938 522.274 379.677 521.834C379.303 521.175 379.523 520.32 380.182 519.938L411.517 501.864V493.284L381.55 510.583C381.33 510.689 381.094 510.779 380.866 510.779C380.386 510.779 379.913 510.534 379.669 510.062C379.287 509.403 379.506 508.581 380.166 508.19L411.525 490.092V481.511L381.525 498.811C381.306 498.95 381.07 499.007 380.842 499.007C380.361 499.007 379.905 498.762 379.645 498.323C379.262 497.663 379.49 496.809 380.158 496.426L411.534 478.328V469.837L381.509 487.056C381.289 487.161 381.053 487.218 380.825 487.218C380.345 487.218 379.873 486.974 379.629 486.535C379.246 485.875 379.474 485.02 380.133 484.638L411.534 466.646V457.927L381.493 475.284C381.273 475.422 381.037 475.479 380.809 475.479C380.329 475.479 379.857 475.235 379.612 474.795C379.23 474.136 379.458 473.281 380.117 472.898L411.534 454.743V447.758L381.428 463.552C381.224 463.658 381.004 463.715 380.785 463.715C380.288 463.715 379.808 463.438 379.563 462.974C379.205 462.29 379.466 461.46 380.141 461.102L411.542 444.624V434.391L381.46 451.772C381.241 451.886 381.004 451.935 380.776 451.935C380.296 451.935 379.824 451.69 379.58 451.251C379.197 450.591 379.417 449.737 380.076 449.354L411.542 431.199V422.619L381.436 440C381.232 440.138 380.98 440.195 380.752 440.195C380.288 440.195 379.816 439.951 379.555 439.511C379.173 438.828 379.401 437.997 380.068 437.615L411.55 419.435V410.855L381.428 428.244C381.208 428.382 380.964 428.439 380.728 428.439C380.264 428.439 379.791 428.195 379.531 427.756C379.148 427.096 379.376 426.241 380.044 425.859L411.558 407.68V399.099L381.411 416.513C381.192 416.627 380.956 416.676 380.728 416.676C380.247 416.676 379.775 416.431 379.531 415.992C379.148 415.332 379.376 414.477 380.036 414.119L411.558 395.908V393.294C411.558 391.813 412.356 390.437 413.634 389.688L517.604 329.663V326.171L381.387 404.733C381.167 404.871 380.931 404.928 380.703 404.928C380.223 404.928 379.751 404.684 379.49 404.244C379.116 403.585 379.335 402.73 379.995 402.347L517.604 322.955V314.374L381.371 392.969C381.151 393.107 380.907 393.164 380.671 393.164C380.207 393.164 379.734 392.92 379.474 392.48C379.091 391.821 379.319 390.966 379.979 390.583L517.604 311.191V302.61L381.346 381.229C381.127 381.343 380.882 381.424 380.646 381.424C380.182 381.424 379.71 381.148 379.449 380.708C379.075 380.049 379.295 379.226 379.954 378.836L517.604 299.419V267.644L357.835 359.875V544.345L411.558 513.343V505.047H411.517ZM319.433 451.878L289.49 469.178C289.27 469.283 289.034 469.373 288.79 469.373C288.326 469.373 287.854 469.129 287.593 468.657C287.219 467.997 287.439 467.175 288.098 466.784L319.433 448.686V440.106L289.466 457.406C289.246 457.544 289.01 457.601 288.782 457.601C288.301 457.601 287.829 457.357 287.585 456.917C287.202 456.258 287.422 455.403 288.082 455.02L319.441 436.923V428.342L289.458 445.642C289.238 445.78 288.993 445.837 288.757 445.837C288.293 445.837 287.821 445.593 287.561 445.153C287.178 444.494 287.406 443.639 288.065 443.256L319.441 425.159V416.684L289.433 433.902C289.213 434.041 288.977 434.098 288.749 434.098C288.269 434.098 287.797 433.853 287.553 433.381C287.17 432.722 287.398 431.899 288.057 431.509L319.441 413.492V404.798L289.417 422.13C289.197 422.268 288.953 422.326 288.717 422.326C288.253 422.326 287.78 422.081 287.52 421.642C287.137 420.982 287.365 420.127 288.033 419.745L319.449 401.615V394.597L289.344 410.415C289.14 410.496 288.92 410.553 288.7 410.553C288.204 410.553 287.724 410.277 287.479 409.813C287.137 409.153 287.398 408.298 288.074 407.94L319.458 391.487V381.229L289.376 398.61C289.156 398.724 288.92 398.806 288.692 398.806C288.212 398.806 287.74 398.562 287.496 398.089C287.113 397.43 287.333 396.608 288 396.217L319.458 378.038V369.457L289.352 386.838C289.132 386.977 288.896 387.034 288.668 387.034C288.204 387.034 287.732 386.79 287.471 386.35C287.089 385.69 287.316 384.836 287.976 384.453L319.458 366.274V357.693L289.335 375.107C289.116 375.221 288.871 375.302 288.635 375.302C288.171 375.302 287.699 375.058 287.439 374.586C287.056 373.927 287.284 373.104 287.943 372.714L319.458 354.502V345.921L289.311 363.335C289.091 363.449 288.855 363.53 288.627 363.53C288.147 363.53 287.675 363.286 287.43 362.814C287.048 362.154 287.276 361.332 287.935 360.941L319.458 342.73V340.116C319.458 338.635 320.239 337.259 321.534 336.51L425.504 276.485V272.993L289.287 351.555C289.067 351.693 288.831 351.75 288.603 351.75C288.122 351.75 287.65 351.506 287.406 351.066C287.023 350.407 287.243 349.552 287.903 349.169L425.512 269.81V261.229L289.278 339.823C289.059 339.937 288.823 339.986 288.595 339.986C288.114 339.986 287.642 339.742 287.398 339.302C287.015 338.643 287.235 337.821 287.894 337.43L425.52 258.038V249.457L289.262 328.051C289.042 328.19 288.798 328.247 288.562 328.247C288.098 328.247 287.626 328.002 287.365 327.563C286.991 326.903 287.211 326.049 287.87 325.666L425.52 246.274V214.475L265.751 306.705V491.199L319.474 460.174V451.878H319.433ZM209.479 461.891L209.536 304.654C209.536 303.88 210.155 303.253 210.928 303.253C211.685 303.253 212.304 303.888 212.304 304.654L212.247 463.487L219.688 467.777L219.745 310.483C219.745 309.742 220.364 309.107 221.121 309.107C221.894 309.107 222.513 309.742 222.513 310.483L222.456 469.373L229.881 473.663L229.938 316.369C229.938 315.595 230.557 314.968 231.33 314.968C232.087 314.968 232.706 315.604 232.706 316.369L232.665 475.259L260.19 491.159V306.656L100.413 214.426V276.453L107.552 280.58V246.005C107.552 245.264 108.171 244.629 108.928 244.629C109.702 244.629 110.32 245.264 110.32 246.005V282.176L117.761 286.491V251.883C117.761 251.11 118.38 250.483 119.137 250.483C119.911 250.483 120.529 251.118 120.529 251.883V288.087L127.954 292.377V257.745C127.954 256.971 128.573 256.344 129.346 256.344C130.103 256.344 130.722 256.979 130.722 257.745V293.973L138.065 298.206L138.147 263.574C138.163 262.833 138.782 262.198 139.539 262.198C140.312 262.198 140.931 262.833 140.931 263.598L140.817 299.769L148.356 304.141V269.452C148.356 268.678 148.974 268.076 149.748 268.076C150.521 268.076 151.14 268.678 151.14 269.452L151.124 305.737L157.189 309.229L158.565 275.256C158.605 274.483 159.224 273.88 160.006 273.937C160.763 273.962 161.357 274.597 161.324 275.37L159.883 310.8L168.757 315.913L168.774 281.167C168.774 280.393 169.392 279.791 170.149 279.791C170.923 279.791 171.542 280.393 171.542 281.167L171.525 317.509L178.966 321.799V287.028C178.966 286.287 179.585 285.652 180.342 285.652C181.115 285.652 181.734 286.287 181.734 287.028V323.395L189.159 327.685V292.89C189.159 292.116 189.778 291.514 190.551 291.514C191.308 291.514 191.927 292.116 191.927 292.89V329.281L199.368 333.571V298.743C199.368 298.002 199.987 297.367 200.76 297.367C201.517 297.367 202.136 298.002 202.136 298.743V335.167L204.407 336.486C205.685 337.226 206.483 338.578 206.483 340.059V460.108L209.479 461.891ZM168.098 544.328V359.834L8.32831 267.603V452.098L168.098 544.328Z" stroke="white" stroke-width="2" mask="url(#path-7-inside-1_1_2275)"/>
<path d="M36.3528 412.125L36.3528 412.125C35.9457 411.904 35.7913 411.365 36.0395 410.947L36.0418 410.943C36.2929 410.51 36.8303 410.366 37.239 410.603L37.2399 410.604L137.489 468.511L36.3528 412.125ZM36.3528 412.125L36.3642 412.131M36.3528 412.125L36.3642 412.131M36.3642 412.131L136.588 470.029M36.3642 412.131L136.588 470.029M136.588 470.029C136.739 470.099 136.903 470.135 137.056 470.135C137.351 470.135 137.655 469.978 137.821 469.698C138.058 469.287 137.918 468.76 137.49 468.511L136.588 470.029Z" stroke="#242424"/>
<path d="M37.2074 427.993L37.2065 427.993C36.7819 427.746 36.2347 427.891 35.993 428.308C35.7523 428.722 35.898 429.266 36.3171 429.513C36.3176 429.514 36.3181 429.514 36.3186 429.514L136.581 487.388L136.59 487.392L136.598 487.397C136.732 487.482 136.866 487.516 137.015 487.516C137.324 487.516 137.614 487.361 137.782 487.077C138.027 486.664 137.882 486.115 137.457 485.868C137.457 485.868 137.457 485.868 137.456 485.868L37.2074 427.993Z" stroke="#242424"/>
<path d="M136.589 478.701L136.598 478.706L136.606 478.711C136.74 478.795 136.874 478.83 137.023 478.83C137.335 478.83 137.633 478.664 137.783 478.395L137.783 478.395L137.788 478.387C138.034 477.962 137.889 477.416 137.473 477.174C137.473 477.173 137.473 477.173 137.472 477.173L37.2236 419.298L37.2227 419.298C36.7976 419.051 36.2616 419.197 36.0278 419.609L36.0279 419.609L36.0232 419.617C35.7738 420.038 35.9144 420.581 36.3441 420.824L36.3478 420.826L136.589 478.701Z" stroke="#242424"/>
<path d="M35.6173 402.005C35.9918 401.346 36.8385 401.126 37.4979 401.509L35.6173 402.005ZM36.0521 402.252L36.0498 402.256C35.8034 402.681 35.9483 403.228 36.3648 403.469C36.3648 403.47 36.3649 403.47 36.3649 403.47L136.62 461.338C136.801 461.431 136.944 461.473 137.064 461.473C137.377 461.473 137.671 461.307 137.812 461.044L137.812 461.044L137.818 461.033C138.071 460.59 137.921 460.063 137.498 459.817C137.497 459.817 137.497 459.816 137.497 459.816L37.2479 401.942L37.247 401.941C36.8219 401.694 36.2859 401.84 36.0521 402.252Z" stroke="#242424"/>
<path d="M136.646 452.65L136.662 452.659L136.678 452.669C136.78 452.739 136.92 452.778 137.08 452.778C137.375 452.778 137.678 452.621 137.845 452.335L137.847 452.331C138.092 451.918 137.947 451.369 137.522 451.122C137.522 451.122 137.522 451.122 137.521 451.122L37.2725 393.247L37.2716 393.246C36.8494 393.001 36.3175 393.143 36.0744 393.561L36.0721 393.565C35.8268 393.979 35.972 394.528 36.3975 394.775C36.3975 394.775 36.3976 394.775 36.3976 394.775L136.646 452.65Z" stroke="#242424"/>
<path d="M36.101 384.863L36.0987 384.867C35.8523 385.291 35.9972 385.838 36.4137 386.08C36.4138 386.08 36.4138 386.08 36.4138 386.08L136.652 443.949C136.834 444.042 136.976 444.083 137.096 444.083C137.405 444.083 137.692 443.93 137.852 443.631L137.856 443.623L137.861 443.616C138.105 443.195 137.966 442.671 137.547 442.427C137.546 442.427 137.546 442.427 137.546 442.427L37.2969 384.552L37.2959 384.551C36.8709 384.305 36.3348 384.451 36.101 384.863Z" stroke="#242424"/>
<path d="M136.687 435.268L136.695 435.273L136.704 435.278C136.837 435.362 136.971 435.397 137.121 435.397C137.433 435.397 137.731 435.231 137.881 434.962L137.881 434.962L137.885 434.954C138.132 434.529 137.987 433.982 137.571 433.74C137.57 433.74 137.57 433.74 137.57 433.74L37.3051 375.866L37.3041 375.865C36.8795 375.619 36.3442 375.764 36.11 376.175C35.857 376.628 36.0077 377.153 36.4219 377.393C36.422 377.393 36.422 377.393 36.422 377.394L136.687 435.268Z" stroke="#242424"/>
<path d="M36.4342 368.692L36.4343 368.692L36.4457 368.699L136.686 426.596C136.84 426.668 136.989 426.702 137.137 426.702C137.446 426.702 137.738 426.54 137.889 426.267L137.889 426.267L137.896 426.255C138.145 425.834 138.005 425.292 137.575 425.048L137.571 425.046L37.3382 367.176C36.8896 366.943 36.3551 367.096 36.1152 367.51L35.6827 367.259L36.1152 367.51C35.8711 367.931 36.0271 368.471 36.4342 368.692Z" stroke="#242424"/>
<path d="M36.4539 359.991L36.4459 359.987C36.0347 359.769 35.8846 359.237 36.1371 358.811L36.1434 358.8L36.1433 358.8C36.3889 358.361 36.9175 358.224 37.3366 358.467L37.3374 358.468L137.586 416.375L36.4539 359.991ZM36.4539 359.991L36.4618 359.996M36.4539 359.991L36.4618 359.996M36.4618 359.996L136.701 417.897C136.883 417.99 137.025 418.032 137.145 418.032C137.442 418.032 137.732 417.87 137.91 417.564L137.912 417.56M36.4618 359.996L137.912 417.56M137.912 417.56C138.155 417.15 138.016 416.625 137.587 416.376L137.912 417.56Z" stroke="#242424"/>
<path d="M36.1557 350.128L36.1534 350.132C35.9081 350.546 36.0533 351.095 36.4789 351.342C36.4789 351.342 36.4789 351.342 36.4789 351.342L136.71 409.207C136.861 409.277 137.018 409.312 137.178 409.312C137.471 409.312 137.774 409.157 137.941 408.88C138.172 408.456 138.029 407.932 137.611 407.689C137.611 407.689 137.611 407.689 137.611 407.689L37.3605 349.793C37.3596 349.793 37.3586 349.792 37.3576 349.792C36.9497 349.567 36.399 349.709 36.1557 350.128Z" stroke="#242424"/>
<path d="M37.3782 341.119L37.3773 341.119C36.9532 340.873 36.407 341.017 36.1648 341.432C35.9245 341.858 36.0711 342.406 36.4869 342.647C36.487 342.647 36.487 342.647 36.487 342.647L136.734 400.516C136.911 400.607 137.062 400.65 137.194 400.65C137.481 400.65 137.778 400.501 137.956 400.211C138.193 399.756 138.039 399.234 137.628 398.995C137.628 398.994 137.627 398.994 137.627 398.994L37.3782 341.119Z" stroke="#242424"/>
<path d="M136.769 391.827L136.777 391.832L136.785 391.837C136.919 391.921 137.053 391.956 137.202 391.956C137.503 391.956 137.799 391.8 137.967 391.512L137.969 391.509C138.214 391.095 138.069 390.547 137.644 390.3C137.644 390.3 137.644 390.299 137.643 390.299L37.3947 332.425L37.3937 332.424C36.9715 332.179 36.4396 332.32 36.1965 332.739L36.1942 332.743C35.949 333.157 36.0941 333.706 36.5197 333.953C36.5197 333.953 36.5197 333.953 36.5197 333.953L136.769 391.827Z" stroke="#242424"/>
<path d="M136.785 383.141L136.793 383.146L136.801 383.151C136.935 383.235 137.069 383.269 137.219 383.269C137.531 383.269 137.828 383.104 137.978 382.834L137.978 382.834L137.983 382.826C138.229 382.402 138.084 381.855 137.668 381.613C137.668 381.613 137.668 381.613 137.668 381.613L37.4108 323.738L37.4108 323.738L37.4012 323.732C37.0081 323.494 36.4656 323.625 36.2165 324.07L36.2167 324.07L36.2103 324.081C35.9673 324.491 36.1065 325.017 36.5358 325.266C36.5358 325.266 36.5359 325.266 36.5359 325.266L136.785 383.141Z" stroke="#242424"/>
<path d="M561.62 380.798C561.62 380.329 561.221 379.922 560.744 379.922C560.257 379.922 559.859 380.324 559.852 380.801V496.581C559.852 497.07 560.239 497.456 560.744 497.456C561.229 497.456 561.62 497.074 561.62 496.581V380.798Z" stroke="#242424"/>
<path d="M576.697 372.152C576.697 371.657 576.297 371.251 575.805 371.251C575.336 371.251 574.929 371.651 574.929 372.16V487.91C574.929 488.404 575.32 488.786 575.805 488.786C576.31 488.786 576.697 488.4 576.697 487.91V372.152Z" stroke="#242424"/>
<path d="M569.159 376.475C569.159 375.985 568.772 375.599 568.267 375.599C567.784 375.599 567.391 375.987 567.391 376.475V492.258C567.391 492.73 567.777 493.133 568.267 493.133C568.764 493.133 569.159 492.722 569.159 492.258V376.475Z" stroke="#242424"/>
<path d="M554.098 385.145C554.098 384.655 553.71 384.269 553.205 384.269C552.724 384.269 552.336 384.648 552.33 385.14V500.895C552.33 501.394 552.734 501.796 553.205 501.796C553.699 501.796 554.098 501.396 554.098 500.895V385.145Z" stroke="#242424"/>
<path d="M546.567 389.46C546.567 388.97 546.18 388.584 545.675 388.584C545.19 388.584 544.799 388.966 544.799 389.46V505.243C544.799 505.711 545.198 506.118 545.675 506.118C546.172 506.118 546.567 505.707 546.567 505.243V389.46Z" stroke="#242424"/>
<path d="M539.036 393.799C539.036 393.308 538.623 392.899 538.144 392.899C537.674 392.899 537.275 393.291 537.268 393.81V509.549C537.268 510.047 537.647 510.425 538.144 510.425C538.637 510.425 539.036 510.035 539.036 509.549V393.799Z" stroke="#242424"/>
<path d="M531.506 398.122C531.506 397.632 531.119 397.246 530.614 397.246C530.131 397.246 529.738 397.635 529.738 398.122V513.88C529.738 514.379 530.142 514.781 530.614 514.781C531.107 514.781 531.506 514.382 531.506 513.88V398.122Z" stroke="#242424"/>
<path d="M523.967 402.445C523.967 401.972 523.581 401.569 523.091 401.569C522.594 401.569 522.199 401.98 522.199 402.445V518.228C522.199 518.717 522.586 519.104 523.091 519.104C523.589 519.104 523.967 518.725 523.967 518.228V402.445Z" stroke="#242424"/>
<path d="M516.445 406.784C516.445 406.289 516.044 405.884 515.553 405.884C515.076 405.884 514.661 406.291 514.661 406.792V522.534C514.661 523.02 515.06 523.41 515.553 523.41C516.058 523.41 516.445 523.024 516.445 522.534V406.784Z" stroke="#242424"/>
<path d="M508.89 411.107C508.89 410.635 508.504 410.231 508.014 410.231C507.517 410.231 507.122 410.642 507.122 411.107V526.89C507.122 527.355 507.517 527.766 508.014 527.766C508.504 527.766 508.89 527.363 508.89 526.89V411.107Z" stroke="#242424"/>
<path d="M501.368 415.454C501.368 414.952 500.976 414.554 500.492 414.554C499.998 414.554 499.6 414.953 499.6 415.454V531.205C499.6 531.698 499.991 532.081 500.475 532.081C500.98 532.081 501.368 531.694 501.368 531.205V415.454Z" stroke="#242424"/>
<path d="M493.829 419.777C493.829 419.28 493.45 418.901 492.953 418.901C492.46 418.901 492.061 419.291 492.061 419.777V535.528C492.061 536.019 492.474 536.428 492.953 536.428C493.439 536.428 493.829 536.036 493.829 535.528V419.777Z" stroke="#242424"/>
<path d="M486.307 424.092C486.307 423.599 485.916 423.216 485.431 423.216C484.926 423.216 484.539 423.602 484.539 424.092V539.875C484.539 540.34 484.933 540.751 485.431 540.751C485.908 540.751 486.307 540.344 486.307 539.875V424.092Z" stroke="#242424"/>
</svg>
