<svg width="189" height="26" viewBox="0 0 189 26" fill="none" xmlns="http://www.w3.org/2000/svg">
<path d="M12.7121 19.7645H24.9381V26H0V23.3169L11.9269 6.23547H0.897324V0H24.639V2.68314L12.7121 19.7645Z" fill="#181818"/>
<path d="M28.8519 0H51.0981V6.23547H37.1148V9.82558H49.0791V15.7965H37.1148V19.7645H51.3598V26H28.8519V0Z" fill="#181818"/>
<path d="M55.8345 0H78.0806V6.23547H64.0973V9.82558H76.0616V15.7965H64.0973V19.7645H78.3423V26H55.8345V0Z" fill="#181818"/>
<path d="M82.817 0H91.0798V19.3488H104.278V26H82.817V0Z" fill="#181818"/>
<path d="M118.897 0C127.895 0 132.394 4.33333 132.394 13C132.394 21.6667 127.895 26 118.897 26H107.755V0H118.897ZM116.018 19.7645H118.747C122.212 19.7645 123.944 17.8876 123.944 14.1337V11.8663C123.944 8.1124 122.212 6.23547 118.747 6.23547H116.018V19.7645Z" fill="#181818"/>
<path d="M136.855 0H159.101V6.23547H145.118V9.82558H157.082V15.7965H145.118V19.7645H159.363V26H136.855V0Z" fill="#181818"/>
<path d="M188.252 7.97384C188.252 9.56105 187.828 10.9971 186.981 12.282C186.134 13.5669 184.9 14.5116 183.28 15.1163L189 26H179.728L175.166 16.5145H172.1V26H163.838V0H179.578C181.423 0 182.993 0.36531 184.289 1.09593C185.61 1.80136 186.595 2.77132 187.243 4.00581C187.916 5.21512 188.252 6.53779 188.252 7.97384ZM179.84 8.31395C179.84 7.63372 179.615 7.06686 179.167 6.61337C178.718 6.15988 178.17 5.93314 177.522 5.93314H172.1V10.7326H177.522C178.17 10.7326 178.718 10.5058 179.167 10.0523C179.615 9.57364 179.84 8.99419 179.84 8.31395Z" fill="#181818"/>
</svg>
