<svg width="179" height="30" viewBox="0 0 179 30" fill="none" xmlns="http://www.w3.org/2000/svg">
<path d="M2.06392 25.0435L19.4784 3.65218H8.12673L9.1587 0.130444H31.475L30.572 4.04349L13.4156 25.6957H25.2832L24.2512 29.2174H0.902954L2.06392 25.0435Z" fill="#181818"/>
<path d="M36.2479 0.130444H55.2103L54.1783 3.65218H45.0196L42.0527 12.5217H49.7924L48.6315 15.9131H40.8917L37.6668 25.6957H46.8255L45.6646 29.2174H26.7021L36.2479 0.130444Z" fill="#181818"/>
<path d="M58.9511 0.130444H77.9135L76.7525 3.65218H67.5938L64.6269 12.5217H72.3667L71.2057 15.9131H63.4659L60.241 25.6957H69.3997L68.2388 29.2174H49.2764L58.9511 0.130444Z" fill="#181818"/>
<path d="M81.6546 0.130444H91.4583L83.0735 25.3044H92.2322L90.9423 29.087H71.9799L81.6546 0.130444Z" fill="#181818"/>
<path d="M93.9092 29.087L103.455 0.130444H115.581C117.386 0.130444 119.063 0.260878 120.353 0.652183C121.772 1.04349 122.804 1.69566 123.578 2.47827C124.352 3.39131 124.997 4.56523 125.255 6.00001C125.513 7.43479 125.642 9.13044 125.384 11.2174C125.126 13.4348 124.61 15.6522 123.707 17.7391C122.933 19.8261 121.772 21.7826 120.224 23.4783C118.676 25.1739 116.87 26.4783 114.678 27.5217C112.485 28.5652 109.905 29.087 106.809 29.087H93.9092ZM106.68 25.8261C107.712 25.8261 108.615 25.4348 109.389 24.6522C110.292 23.7391 111.066 22.6957 111.711 21.3913C112.485 20.087 113.13 18.6522 113.646 17.087C114.291 15.5217 114.678 13.9565 115.065 12.5217C115.452 11.087 115.839 9.78262 116.096 8.6087C116.354 7.43479 116.483 6.65218 116.612 6.13044C116.741 5.2174 116.612 4.43479 116.225 3.91305C115.967 3.39131 115.323 3.13044 114.42 3.13044H112.227L104.616 25.8261H106.68Z" fill="#181818"/>
<path d="M133.382 0H152.344L151.183 3.52174H142.024L139.058 12.3913H146.797L145.636 15.7826H137.897L134.672 25.5652H143.83L142.669 29.087H123.707L133.382 0Z" fill="#181818"/>
<path d="M177.37 6.91304C177.112 8.73913 176.467 10.3043 175.306 11.8696C174.145 13.4348 172.339 14.6087 170.017 15.3913L173.629 29.087H163.567L161.116 16.4348H160.6L156.472 29.087H146.668L156.085 0H167.953C169.372 0 170.662 0.130435 171.823 0.26087C172.984 0.391304 174.016 0.782609 174.919 1.30435C175.822 1.82609 176.467 2.47826 176.854 3.3913C177.37 4.30435 177.499 5.47826 177.37 6.91304ZM163.567 13.4348C164.341 13.4348 164.986 13.1739 165.631 12.6522C166.276 12.1304 166.792 11.4783 167.179 10.6957C167.695 9.91304 167.953 9.13043 168.211 8.21739C168.469 7.30435 168.598 6.52174 168.727 5.86957C168.856 5.08696 168.727 4.43478 168.598 3.91304C168.34 3.3913 167.824 3 166.921 3H164.857L161.374 13.3043L163.567 13.4348Z" fill="#181818"/>
</svg>
