<svg width="31" height="31" viewBox="0 0 31 31" fill="none" xmlns="http://www.w3.org/2000/svg">
<g clip-path="url(#clip0_1_9138)">
<mask id="mask0_1_9138" style="mask-type:luminance" maskUnits="userSpaceOnUse" x="0" y="0" width="31" height="31">
<path d="M0.214233 0.392853H30.6071V30.7857H0.214233V0.392853Z" fill="white"/>
</mask>
<g mask="url(#mask0_1_9138)">
<path d="M14.2123 4.43245C14.2493 3.52161 15.0058 2.78797 15.9253 2.78797C16.8424 2.78797 17.5975 3.51799 17.6379 4.42568" stroke="#B10C10" stroke-miterlimit="10" stroke-linecap="round" stroke-linejoin="round"/>
<path d="M26.2245 17.4256L24.7546 15.9552" stroke="#B10C10" stroke-miterlimit="10" stroke-linecap="round" stroke-linejoin="round"/>
<path d="M15.7424 23.196C16.2428 23.2753 16.7488 23.3086 17.2537 23.2958C17.8548 23.2805 18.4367 23.5076 18.8619 23.9328L19.3073 24.3782" stroke="#B10C10" stroke-miterlimit="10" stroke-linecap="round" stroke-linejoin="round"/>
<path d="M23.4887 20.2322L18.7501 24.9708C18.4309 25.2899 18.4309 25.8074 18.7501 26.1266L20.6764 28.0528C20.9955 28.372 21.513 28.372 21.8322 28.0528L29.9225 19.9625C30.2416 19.6433 30.2416 19.1259 29.9225 18.8067L27.9962 16.8805C27.677 16.5613 27.1596 16.5613 26.8404 16.8805L24.7479 18.973" stroke="#B10C10" stroke-miterlimit="10" stroke-linecap="round" stroke-linejoin="round"/>
<path d="M4.59326 17.5282L4.99983 17.1216C5.42984 16.6916 5.65464 16.1017 5.63624 15.4938C5.63505 15.4544 5.63416 15.4152 5.6335 15.3758" stroke="#B10C10" stroke-miterlimit="10" stroke-linecap="round" stroke-linejoin="round"/>
<path d="M15.9838 6.13167L18.2882 3.82728C18.9179 3.19752 19.9441 3.15893 20.5908 3.77118C21.2619 4.4064 21.2729 5.46564 20.6237 6.1147L21.7555 4.98298C22.3852 4.35328 23.4113 4.31469 24.0581 4.92694C24.7291 5.56216 24.7401 6.6214 24.091 7.27052L22.55 8.81153C23.1991 8.16236 24.2584 8.1734 24.8936 8.84442C25.5058 9.49121 25.4672 10.5173 24.8375 11.1471L23.2965 12.6881C23.9263 12.0583 24.9523 12.0197 25.5991 12.632C26.2702 13.2673 26.2811 14.3265 25.632 14.9755L19.6389 20.9687C17.9726 22.6351 15.7609 23.4488 13.5718 23.3943C12.9692 23.3793 12.3856 23.6049 11.9593 24.0312L11.5695 24.4211" stroke="#B10C10" stroke-miterlimit="10" stroke-linecap="round" stroke-linejoin="round"/>
<path d="M16.0671 6.33199L13.5679 3.83283C12.9012 3.16609 11.8102 3.16609 11.1434 3.83283C10.4767 4.49958 10.4767 5.59057 11.1434 6.25732C10.4767 5.59057 9.38562 5.59057 8.71888 6.25732C8.05213 6.92406 8.05213 8.01512 8.71888 8.6818C8.05213 8.01512 6.96114 8.01512 6.29439 8.6818C5.62765 9.34854 5.62765 10.4396 6.29439 11.1063L6.41056 11.2225C5.74382 10.5557 4.65276 10.5557 3.98602 11.2225C3.31928 11.8892 3.31928 12.9803 3.98602 13.6469L5.79232 15.4532C6.45906 16.1199 7.55006 16.1199 8.2168 15.4532C8.88354 14.7865 8.88354 13.6954 8.2168 13.0287L9.36354 14.1754C10.0303 14.8422 11.1213 14.8422 11.788 14.1754C12.4548 13.5087 12.4548 12.4177 11.788 11.7509L12.779 12.7419C13.4457 13.4087 14.5367 13.4087 15.2035 12.7419C15.8702 12.0752 15.8702 10.9842 15.2035 10.3174L13.6426 8.75648C14.3093 9.42322 15.4003 9.42322 16.0671 8.75648C16.7337 8.08973 16.7337 6.99874 16.0671 6.33199Z" stroke="#B10C10" stroke-miterlimit="10" stroke-linecap="round" stroke-linejoin="round"/>
<path d="M12.0712 26.225L10.1449 28.1512C9.8257 28.4704 9.30825 28.4704 8.98913 28.1512L0.898812 20.0609C0.579628 19.7418 0.579628 19.2243 0.898812 18.9051L2.82508 16.9789C3.1442 16.6597 3.66165 16.6597 3.98084 16.9789L12.0712 25.0692C12.3903 25.3884 12.3903 25.9058 12.0712 26.225Z" stroke="#B10C10" stroke-miterlimit="10" stroke-linecap="round" stroke-linejoin="round"/>
<path d="M11.1434 6.25733L13.6426 8.75648" stroke="#B10C10" stroke-miterlimit="10" stroke-linecap="round" stroke-linejoin="round"/>
<path d="M10.3678 10.3307L11.788 11.7509" stroke="#B10C10" stroke-miterlimit="10" stroke-linecap="round" stroke-linejoin="round"/>
<path d="M8.71887 8.68183L9.10852 9.07147" stroke="#B10C10" stroke-miterlimit="10" stroke-linecap="round" stroke-linejoin="round"/>
<path d="M6.41052 11.2225L8.21676 13.0287" stroke="#B10C10" stroke-miterlimit="10" stroke-linecap="round" stroke-linejoin="round"/>
<path d="M20.6237 6.11473L18.6735 8.06503" stroke="#B10C10" stroke-miterlimit="10" stroke-linecap="round" stroke-linejoin="round"/>
<path d="M22.55 8.8115L20.985 10.3766" stroke="#B10C10" stroke-miterlimit="10" stroke-linecap="round" stroke-linejoin="round"/>
</g>
</g>
<defs>
<clipPath id="clip0_1_9138">
<rect width="30.3929" height="30.3929" fill="white" transform="translate(0.214233 0.392853)"/>
</clipPath>
</defs>
</svg>
