<svg width="31" height="31" viewBox="0 0 31 31" fill="none" xmlns="http://www.w3.org/2000/svg">
<g clip-path="url(#clip0_1_9126)">
<path d="M22.1488 5.95843C21.9732 5.78664 21.6916 5.78973 21.52 5.96526C21.3482 6.14073 21.3513 6.42228 21.5268 6.59407C23.2063 8.23778 24.1416 10.4335 24.1602 12.7767C24.1971 17.5644 20.1979 21.5948 15.4099 21.5948C13.3728 21.5948 11.4936 20.8937 10.0033 19.7188C10.1916 19.6672 10.33 19.4947 10.33 19.2899V18.4145C10.8908 18.4647 11.6878 18.5763 12.0373 18.8447C12.3221 19.0633 12.6738 19.1838 13.0276 19.1841L19.1008 19.1878C20.1758 19.0876 20.9132 17.979 20.2867 17.0128C20.9008 16.5939 21.0835 15.6691 20.6558 15.0487C21.2348 14.6181 21.394 13.7249 20.9799 13.1211C22.0075 12.3624 21.5256 10.5768 20.1452 10.5758L16.3373 10.5735C16.691 9.31785 16.6376 8.00568 16.1784 6.49725C15.7549 5.10619 13.5659 5.45422 13.6423 6.94602C13.7242 8.5426 12.7666 9.17331 11.5542 9.97183C11.1456 10.241 10.7286 10.5156 10.33 10.84V10.1015C10.33 9.8559 10.131 9.65686 9.88537 9.65686H7.25953C8.54565 6.37634 11.8231 4.12257 15.343 4.09545C17.0239 4.08191 18.662 4.54986 20.0783 5.44757C20.2858 5.579 20.5604 5.5175 20.6919 5.31003C20.8234 5.10257 20.7618 4.82784 20.5544 4.69636C19.0147 3.72052 17.2382 3.2058 15.4118 3.2058C10.1398 3.2058 5.73098 7.64767 5.77177 12.9196C5.81266 18.1389 10.1859 22.4844 15.4098 22.4841C20.6884 22.4841 25.0902 18.0506 25.0495 12.7697C25.0291 10.1879 23.9989 7.76895 22.1488 5.95843ZM10.3303 12.0488C10.8379 11.5087 11.4501 11.1055 12.0434 10.7147C13.3192 9.87436 14.6385 9.00544 14.5304 6.90055C14.5091 6.48509 15.1727 6.24776 15.3275 6.75637C15.7997 8.30747 15.7926 9.61015 15.3051 10.8558C15.2295 11.2038 15.3674 11.406 15.719 11.4626L20.1446 11.4652C20.4317 11.4654 20.6652 11.6992 20.665 11.9863C20.6649 12.2733 20.4313 12.5067 20.1443 12.5067H20.144L18.943 12.506H18.9427C18.6973 12.506 18.4982 12.7049 18.4981 12.9503C18.4979 13.196 18.6969 13.3951 18.9424 13.3953L19.8218 13.3959C20.1064 13.3989 20.3371 13.6316 20.3369 13.9169C20.3367 14.2039 20.1031 14.4373 19.8161 14.4373H19.8158L18.9417 14.4368H18.9414C18.696 14.4368 18.4969 14.6357 18.4968 14.8812C18.4966 15.1268 18.6956 15.326 18.9411 15.3261L19.5008 15.3265C19.785 15.3301 20.0149 15.5626 20.0147 15.8475C20.0146 16.1345 19.7809 16.3679 19.494 16.3679H19.4937L18.6196 16.3674H18.6193C18.3738 16.3674 18.1748 16.5663 18.1746 16.8118C18.1744 17.0574 18.3735 17.2566 18.619 17.2567L19.1018 17.257C19.419 17.2871 19.5925 17.4607 19.6221 17.7781C19.6219 18.0866 19.367 18.257 19.1011 18.2985L13.028 18.2948C12.8687 18.2947 12.7091 18.2395 12.5786 18.1393C12.0582 17.7398 11.1861 17.5929 10.33 17.5222V12.0488H10.3303ZM6.96552 10.5463H9.44069V18.8452H9.0485C7.58453 17.294 6.67916 15.2087 6.66117 12.9128C6.65488 12.1027 6.7587 11.3082 6.96552 10.5463Z" fill="#B10C10"/>
<path d="M27.9346 11.8415L26.5055 9.80734C26.3643 9.60635 26.2917 9.37027 26.2955 9.12463L26.335 6.63889C26.3492 5.75031 25.7937 4.95974 24.953 4.67172L22.6011 3.86613C22.3698 3.78689 22.1731 3.63955 22.0321 3.43998L20.6059 1.33433C20.0936 0.665683 19.1458 0.275977 18.3151 0.552837L15.9446 1.35617C15.7116 1.42663 15.4667 1.42212 15.2399 1.34442L12.8489 0.50149C12.0187 0.217151 11.0665 0.503389 10.5458 1.21519L9.09088 3.23507C8.9436 3.42977 8.74243 3.57057 8.50884 3.6424L6.13262 4.37302C5.28316 4.63421 4.70297 5.40673 4.68884 6.29525L4.64936 8.78099C4.64545 9.02669 4.56543 9.26027 4.41786 9.4567L2.92493 11.4445C2.39115 12.155 2.37578 13.1211 2.8867 13.8483L4.31582 15.8826C4.45704 16.0835 4.52963 16.3195 4.52572 16.5652L4.4863 19.0509C4.47217 19.9396 5.02755 20.7301 5.86828 21.0181L8.22023 21.8238C8.50196 21.9369 8.7156 22.1147 8.86127 22.357L8.24095 23.4315C8.11813 23.6442 8.19102 23.9161 8.40371 24.0389C8.62857 24.1554 8.83105 24.1012 9.01116 23.8762L9.41362 23.1791L10.2144 24.3709C10.6727 25.0583 11.7183 25.4257 12.5086 25.1528L13.9054 24.6697L11.175 29.3992L10.0718 27.1677C9.99216 27.0068 9.82476 26.9096 9.64454 26.9211L7.16052 27.0811L8.04054 25.5571C8.16336 25.3444 8.09053 25.0725 7.87778 24.9496C7.66508 24.8268 7.39315 24.8997 7.27033 25.1124L5.97484 27.3558C5.79076 27.7397 5.9464 28.0213 6.38853 28.0219L9.40591 27.8275L10.746 30.5382C10.9046 30.8587 11.3535 30.8688 11.5298 30.5634L15.1541 24.2854C15.3488 24.283 15.5342 24.3184 15.7102 24.3918L19.2737 30.5634C19.45 30.8687 19.8989 30.8588 20.0575 30.5382L21.3976 27.8275L24.4149 28.0219C24.8193 28.0436 25.0194 27.7249 24.8286 27.3558L23.5367 25.1187C23.4139 24.9061 23.142 24.8332 22.9292 24.956C22.7165 25.0789 22.6437 25.3508 22.7665 25.5635L23.6429 27.0809L21.159 26.9209C20.9804 26.9093 20.8114 27.0066 20.7318 27.1675L19.6285 29.3992L17.007 24.8591C17.4583 25.0662 18.0938 25.3053 18.6015 25.3053C19.2318 25.3053 19.8405 25.0124 20.2373 24.4841L21.3055 23.0323L21.7966 23.883C21.9766 24.1081 22.1791 24.1624 22.404 24.0459C22.6167 23.9231 22.6896 23.6512 22.5668 23.4385L21.8965 22.2772C22.0167 22.1731 22.1574 22.095 22.3125 22.0474L24.6888 21.3167C25.5382 21.0555 26.1184 20.283 26.1325 19.3945L26.172 16.9087C26.1759 16.6631 26.2559 16.4295 26.4035 16.2331L27.8965 14.2452C28.4302 13.5347 28.4455 12.5687 27.9346 11.8415ZM27.1853 13.7112L25.6924 15.699C25.4313 16.0466 25.2896 16.4601 25.2827 16.8947L25.2433 19.3804C25.2352 19.8826 24.9074 20.3191 24.4274 20.4667L22.0511 21.1973C21.572 21.3042 21.2223 21.6176 20.9826 21.9706L19.5236 23.9536C19.2227 24.3542 18.7025 24.515 18.2282 24.3539L15.8802 23.5076C15.4552 23.3596 14.8994 23.3745 14.5951 23.49L12.2259 24.3095C11.7492 24.4528 11.2378 24.2771 10.9499 23.8706L9.52439 21.7489C9.28422 21.3988 8.94562 21.1433 8.50861 20.9823L6.15666 20.1765C5.68159 20.0138 5.36769 19.5671 5.37571 19.0649L5.41512 16.5792C5.42207 16.1445 5.29361 15.7267 5.0437 15.3711L3.61446 13.337C3.32573 12.926 3.3344 12.3801 3.63607 11.9785L5.129 9.99077C5.39007 9.64327 5.53171 9.22976 5.53865 8.79506L5.57813 6.30932C5.58614 5.80712 5.91393 5.37064 6.39399 5.22307L8.77021 4.49245C9.2115 4.34506 9.55805 4.10049 9.80968 3.75875L11.2646 1.73887C11.5666 1.33973 12.0869 1.1807 12.557 1.34157L14.9479 2.18443C15.3937 2.32761 15.819 2.33302 16.2236 2.20064L18.5941 1.39731C19.0714 1.25318 19.5838 1.42912 19.8717 1.83646L21.2979 3.94212C21.5391 4.2908 21.8774 4.54594 22.3128 4.70746L24.6647 5.51305C25.1398 5.67587 25.4538 6.12262 25.4457 6.62476L25.4063 9.11056C25.3994 9.54526 25.5278 9.96299 25.7777 10.3186L27.2069 12.3528C27.4956 12.7637 27.4869 13.3096 27.1853 13.7112Z" fill="#B10C10"/>
<path d="M8.04392 13.2895C7.79834 13.2895 7.59924 13.0904 7.59924 12.8449C7.59924 12.5993 7.79834 12.4002 8.04392 12.4002C8.28949 12.4002 8.48859 12.5993 8.48859 12.8449C8.48859 13.0905 8.28955 13.2895 8.04392 13.2895Z" fill="#B10C10"/>
</g>
<defs>
<clipPath id="clip0_1_9126">
<rect width="30.3929" height="30.3929" fill="white" transform="translate(0.214233 0.39286)"/>
</clipPath>
</defs>
</svg>
